<svg width="30" height="30" viewBox="0 0 30 30" fill="none" xmlns="http://www.w3.org/2000/svg">
<path d="M5.03955 7.11328C7.561 3.17157 12.4645 1.26627 17.4194 2.04883L17.4185 2.0498C22.4349 2.83816 26.3944 6.21404 27.6333 10.9365C28.5391 14.3777 28.2757 17.4682 26.5591 19.9209H26.5581C25.1748 21.8968 23.1713 23.0063 21.4858 23.6299C20.4456 24.0148 19.4816 24.2298 18.7739 24.3506L18.9165 25.8828C18.9714 26.4776 18.6341 27.0399 18.0835 27.2715C17.533 27.5029 16.896 27.3505 16.5093 26.8955C15.8588 26.1297 14.8857 24.9228 13.8638 23.4775C13.4765 23.5988 13.0767 23.6585 12.6772 23.6787H12.6724C9.32501 23.8371 6.09007 22.0649 4.2876 19.1807L4.11768 18.8975C2.06872 15.3507 2.54497 11.0146 5.03955 7.11328Z" fill="white" stroke="white" stroke-width="2.73915" stroke-linejoin="round"/>
<path d="M18.0347 27.5153C17.9302 27.5153 17.8291 27.4714 17.7583 27.3939C17.7448 27.3771 16.3156 25.8232 14.7045 23.6087C14.4921 23.3154 14.2865 23.0255 14.0876 22.7357C13.6764 22.9312 13.1944 23.039 12.645 23.066C9.44623 23.2177 6.31151 21.4582 4.64978 18.5898C2.77232 15.3438 3.10264 11.2822 5.55648 7.44298C7.90246 3.7757 12.5236 1.89824 17.3268 2.65327C22.1536 3.41167 25.8748 6.6475 27.0444 11.0934C27.941 14.5045 27.6073 17.3561 26.0602 19.5672C24.1929 22.2301 20.802 23.5008 18.1122 23.8311L18.4156 27.1007C18.429 27.2625 18.3414 27.4141 18.1931 27.4816C18.1425 27.5051 18.092 27.5153 18.038 27.5153H18.0347ZM14.7247 22.3211C15.81 23.8884 16.8684 25.203 17.5527 26.0086L17.3235 23.5311C17.3133 23.43 17.3437 23.3323 17.4077 23.2547C17.4718 23.1772 17.5628 23.13 17.6639 23.1199C18.5538 23.039 23.1075 22.4626 25.4366 19.1358C26.8523 17.1134 27.1489 14.4742 26.3096 11.2855C25.2209 7.13288 21.7323 4.11277 17.2055 3.40156C12.7023 2.69035 8.37773 4.43635 6.19354 7.85083C3.89812 11.4406 3.57453 15.2191 5.30368 18.2122C6.82385 20.8414 9.68891 22.4492 12.6079 22.311C13.009 22.2907 13.3562 22.2233 13.6562 22.0986C12.0652 19.7021 10.9698 17.5078 10.4001 15.5595C9.06197 10.9855 10.4608 10.1631 10.9226 10.0182C12.2304 9.60694 13.8449 11.4204 14.846 14.4236C16.0156 17.9392 16.1269 20.4234 15.1764 21.8087C15.0449 22.0009 14.8932 22.1694 14.7247 22.3177V22.3211ZM11.2866 10.7193C11.236 10.7193 11.1889 10.726 11.145 10.7395C10.6394 10.8979 10.2181 12.2563 11.1214 15.3472C11.7518 17.501 13.0056 19.7526 14.2899 21.6874C14.3842 21.5964 14.4685 21.4953 14.546 21.384C15.3449 20.2178 15.1999 17.8954 14.1213 14.6629C13.2315 11.99 11.9641 10.7193 11.2799 10.7193H11.2866Z" fill="#11130C" stroke="#11130C" stroke-width="0.682353"/>
<path d="M23.9273 17.8121C22.97 17.8121 21.4734 15.8807 20.8667 15.0414C20.7454 14.8728 20.7824 14.6369 20.951 14.5155C21.1195 14.3942 21.3555 14.4313 21.4768 14.5998C22.4037 15.8874 23.5396 17.0334 23.8969 17.0604C24.1902 16.4908 23.2262 13.0931 22.1644 10.2719C22.0903 10.0764 22.1914 9.8573 22.3835 9.78651C22.579 9.71236 22.7981 9.81011 22.8689 10.0056C23.4149 11.455 25.1475 16.2784 24.5643 17.4076C24.4396 17.6503 24.2306 17.7952 23.9745 17.8154C23.9576 17.8154 23.9408 17.8154 23.9239 17.8154L23.9273 17.8121Z" fill="#11130C" stroke="#11130C" stroke-width="0.426471"/>
<path d="M18.9727 12.5664C18.7671 12.5664 18.5648 12.5395 18.3693 12.4889C17.3986 12.2361 16.9402 11.4373 16.92 11.4036C16.8188 11.2215 16.8829 10.9923 17.0649 10.8878C17.2469 10.7867 17.4761 10.8508 17.5772 11.0294C17.584 11.0429 17.9109 11.5923 18.5682 11.7575C19.1041 11.8923 19.7277 11.7474 20.4187 11.3193C20.5973 11.2114 20.8299 11.2654 20.9378 11.444C21.0456 11.6226 20.9917 11.8552 20.8131 11.9631C20.1659 12.3608 19.5457 12.5631 18.9693 12.5631L18.9727 12.5664Z" fill="#11130C" stroke="#11130C" stroke-width="0.426471"/>
<path d="M25.7333 13.433C25.6187 13.433 25.5041 13.4195 25.3929 13.3892C24.621 13.1903 24.2637 12.3712 24.2469 12.3342C24.166 12.142 24.2536 11.9196 24.4457 11.8387C24.6379 11.7578 24.857 11.8454 24.9412 12.0375C25.0053 12.1825 25.2412 12.5735 25.5817 12.6577C25.8277 12.7184 26.1176 12.6207 26.4445 12.3645C26.6097 12.2364 26.8457 12.2634 26.9737 12.4285C27.1018 12.5937 27.0749 12.8296 26.9097 12.9577C26.5086 13.2712 26.1142 13.4296 25.7333 13.4296V13.433Z" fill="#11130C" stroke="#11130C" stroke-width="0.426471"/>
<path d="M21.6378 19.3619C21.0244 19.3619 20.5188 19.1968 20.1312 18.8631C19.3626 18.2058 19.3829 17.1575 19.3829 17.1137C19.3896 16.9047 19.5548 16.7396 19.7705 16.7463C19.9795 16.753 20.1413 16.9249 20.1379 17.1339C20.1379 17.1508 20.1345 17.8755 20.6266 18.2934C20.9839 18.5968 21.5333 18.6811 22.2648 18.5429C22.4704 18.5058 22.6659 18.6406 22.7063 18.8462C22.7434 19.0518 22.6086 19.2473 22.403 19.2878C22.1333 19.3383 21.8772 19.3619 21.6378 19.3619Z" fill="#11130C" stroke="#11130C" stroke-width="0.426471"/>
</svg>
