<svg width="70" height="16" viewBox="0 0 70 16" fill="none" xmlns="http://www.w3.org/2000/svg">
<path d="M7.26834 15.1308C6.06021 15.1308 4.94549 14.8505 3.92419 14.2901C2.91533 13.7171 2.11199 12.9262 1.51415 11.9174C0.928766 10.8961 0.636075 9.75023 0.636075 8.47983C0.636075 7.20942 0.928766 6.06979 1.51415 5.06094C2.11199 4.05209 2.91533 3.26742 3.92419 2.70695C4.94549 2.13402 6.06021 1.84756 7.26834 1.84756C8.48893 1.84756 9.60365 2.13402 10.6125 2.70695C11.6338 3.26742 12.4372 4.05209 13.0225 5.06094C13.6079 6.06979 13.9006 7.20942 13.9006 8.47983C13.9006 9.75023 13.6079 10.8961 13.0225 11.9174C12.4372 12.9262 11.6338 13.7171 10.6125 14.2901C9.60365 14.8505 8.48893 15.1308 7.26834 15.1308ZM7.26834 13.2812C8.12774 13.2812 8.89372 13.0882 9.56629 12.7021C10.2389 12.3035 10.762 11.743 11.1356 11.0206C11.5217 10.2858 11.7148 9.43886 11.7148 8.47983C11.7148 7.52079 11.5217 6.68008 11.1356 5.95769C10.762 5.23531 10.2389 4.68106 9.56629 4.29496C8.89372 3.90885 8.12774 3.7158 7.26834 3.7158C6.40895 3.7158 5.64297 3.90885 4.9704 4.29496C4.29783 4.68106 3.7685 5.23531 3.38239 5.95769C3.00875 6.68008 2.82192 7.52079 2.82192 8.47983C2.82192 9.43886 3.00875 10.2858 3.38239 11.0206C3.7685 11.743 4.29783 12.3035 4.9704 12.7021C5.64297 13.0882 6.40895 13.2812 7.26834 13.2812ZM20.8165 4.53783C21.626 4.53783 22.3484 4.70597 22.9836 5.04225C23.6313 5.37854 24.1357 5.87674 24.4969 6.53685C24.8581 7.19696 25.0387 7.99408 25.0387 8.9282V15H22.9276V9.24581C22.9276 8.32414 22.6972 7.62043 22.2363 7.13469C21.7755 6.63649 21.1465 6.38739 20.3494 6.38739C19.5523 6.38739 18.9171 6.63649 18.4438 7.13469C17.983 7.62043 17.7526 8.32414 17.7526 9.24581V15H15.6228V4.70597H17.7526V5.88296C18.1013 5.4595 18.5434 5.12944 19.079 4.8928C19.627 4.65615 20.2062 4.53783 20.8165 4.53783ZM31.1182 15.1681C30.3087 15.1681 29.5801 15.0249 28.9324 14.7384C28.2972 14.4395 27.7928 14.041 27.4191 13.5428C27.0455 13.0321 26.8462 12.4654 26.8213 11.8427H29.0258C29.0632 12.2786 29.2687 12.646 29.6423 12.9449C30.0284 13.2314 30.5079 13.3746 31.0809 13.3746C31.6787 13.3746 32.1395 13.2625 32.4634 13.0383C32.7997 12.8017 32.9678 12.5028 32.9678 12.1416C32.9678 11.7555 32.781 11.469 32.4073 11.2822C32.0461 11.0954 31.467 10.8899 30.6699 10.6657C29.8977 10.4539 29.2687 10.2484 28.7829 10.0492C28.2972 9.84987 27.8737 9.54473 27.5125 9.13371C27.1638 8.7227 26.9894 8.18091 26.9894 7.50834C26.9894 6.96032 27.1513 6.46212 27.4752 6.01374C27.799 5.55291 28.2598 5.19171 28.8577 4.93016C29.468 4.66861 30.1654 4.53783 30.9501 4.53783C32.1209 4.53783 33.0612 4.83675 33.7711 5.43459C34.4935 6.01997 34.8796 6.82331 34.9295 7.84462H32.7997C32.7623 7.38379 32.5755 7.01637 32.2392 6.74236C31.9029 6.46835 31.4483 6.33134 30.8754 6.33134C30.3149 6.33134 29.8852 6.43721 29.5863 6.64895C29.2874 6.86068 29.1379 7.14092 29.1379 7.48966C29.1379 7.76366 29.2375 7.99408 29.4368 8.18091C29.6361 8.36773 29.879 8.51719 30.1654 8.62929C30.4519 8.72892 30.8754 8.8597 31.4358 9.02162C32.1831 9.2209 32.7934 9.4264 33.2667 9.63814C33.7525 9.83742 34.1697 10.1363 34.5184 10.5349C34.8672 10.9335 35.0478 11.4628 35.0602 12.1229C35.0602 12.7083 34.8983 13.2314 34.5745 13.6922C34.2507 14.1531 33.7898 14.5143 33.192 14.7758C32.6066 15.0374 31.9154 15.1681 31.1182 15.1681ZM42.3124 4.53783C43.097 4.53783 43.7945 4.70597 44.4048 5.04225C45.0276 5.37854 45.5133 5.87674 45.862 6.53685C46.2232 7.19696 46.4038 7.99408 46.4038 8.9282V15H44.2927V9.24581C44.2927 8.32414 44.0623 7.62043 43.6015 7.13469C43.1406 6.63649 42.5117 6.38739 41.7145 6.38739C40.9174 6.38739 40.2822 6.63649 39.8089 7.13469C39.3481 7.62043 39.1177 8.32414 39.1177 9.24581V15H36.9879V1.17499H39.1177V5.90165C39.4789 5.46572 39.9335 5.12944 40.4815 4.8928C41.042 4.65615 41.6523 4.53783 42.3124 4.53783ZM49.8305 3.34215C49.4444 3.34215 49.1205 3.21138 48.859 2.94982C48.5974 2.68827 48.4666 2.36444 48.4666 1.97833C48.4666 1.59223 48.5974 1.2684 48.859 1.00685C49.1205 0.745292 49.4444 0.614515 49.8305 0.614515C50.2041 0.614515 50.5217 0.745292 50.7833 1.00685C51.0448 1.2684 51.1756 1.59223 51.1756 1.97833C51.1756 2.36444 51.0448 2.68827 50.7833 2.94982C50.5217 3.21138 50.2041 3.34215 49.8305 3.34215ZM50.8767 4.70597V15H48.7469V4.70597H50.8767ZM65.7605 4.53783C66.57 4.53783 67.2924 4.70597 67.9276 5.04225C68.5753 5.37854 69.0797 5.87674 69.4409 6.53685C69.8146 7.19696 70.0014 7.99408 70.0014 8.9282V15H67.8903V9.24581C67.8903 8.32414 67.6598 7.62043 67.199 7.13469C66.7382 6.63649 66.1092 6.38739 65.3121 6.38739C64.515 6.38739 63.8798 6.63649 63.4065 7.13469C62.9456 7.62043 62.7152 8.32414 62.7152 9.24581V15H60.6041V9.24581C60.6041 8.32414 60.3737 7.62043 59.9129 7.13469C59.452 6.63649 58.823 6.38739 58.0259 6.38739C57.2288 6.38739 56.5936 6.63649 56.1203 7.13469C55.6595 7.62043 55.4291 8.32414 55.4291 9.24581V15H53.2993V4.70597H55.4291V5.88296C55.7778 5.4595 56.22 5.12944 56.7555 4.8928C57.2911 4.65615 57.864 4.53783 58.4743 4.53783C59.2963 4.53783 60.0312 4.7122 60.6788 5.06094C61.3265 5.40968 61.8247 5.9141 62.1734 6.57422C62.4848 5.95147 62.9705 5.4595 63.6307 5.0983C64.2908 4.72465 65.0007 4.53783 65.7605 4.53783Z" fill="#1C1D1E"/>
</svg>
