<svg width="24" height="24" viewBox="0 0 24 24" fill="none" xmlns="http://www.w3.org/2000/svg">
<path d="M5.86969 9C5.86969 5.68629 8.55598 3 11.8697 3H12.1303C15.444 3 18.1303 5.68629 18.1303 9V10.7722C18.1303 11.4485 18.336 12.1088 18.7202 12.6654L19.4894 13.7801C20.3266 14.9933 20.0321 16.6541 18.829 17.5055V17.5055C18.3744 17.8272 17.8312 18 17.2743 18H6.72566C6.16875 18 5.62557 17.8272 5.17098 17.5055V17.5055C3.96785 16.6541 3.67344 14.9933 4.5106 13.7801L5.27985 12.6654C5.66397 12.1088 5.86969 11.4485 5.86969 10.7722V9Z" stroke="#7A8A93" stroke-width="2" stroke-linecap="round" stroke-linejoin="round"/>
<path d="M9 18.5367V18.5367C9.63057 21.6708 14.1107 21.6708 14.7413 18.5367V18.5367" stroke="#7A8A93" stroke-width="2" stroke-linecap="round" stroke-linejoin="round"/>
</svg>
