<svg width="24" height="24" viewBox="0 0 24 24" fill="none" xmlns="http://www.w3.org/2000/svg">
<path d="M9.75977 2.21484H15.8119C19.1108 2.21484 21.7852 4.8892 21.7852 8.18818V14.2403" stroke="#6A8175" stroke-width="1.792" stroke-linecap="round" stroke-linejoin="round"/>
<path d="M3.03906 9.29193C3.03906 7.23006 4.71053 5.55859 6.7724 5.55859H14.7086C16.7705 5.55859 18.442 7.23006 18.442 9.29193V17.2282C18.442 19.29 16.7705 20.9615 14.7086 20.9615H6.77239C4.71053 20.9615 3.03906 19.29 3.03906 17.2282V9.29193Z" stroke="#6A8175" stroke-width="1.792" stroke-linecap="round" stroke-linejoin="round"/>
<path d="M12.9962 10.8145C12.9962 12.0906 11.9617 13.1251 10.6856 13.1251C9.40948 13.1251 8.375 12.0906 8.375 10.8145C8.375 9.53839 9.40948 8.50391 10.6856 8.50391C11.9617 8.50391 12.9962 9.53839 12.9962 10.8145Z" stroke="#6A8175" stroke-width="1.49333" stroke-linecap="round" stroke-linejoin="round"/>
<path d="M6.99219 18.0208V18.0208C8.30844 14.5819 13.1736 14.5819 14.4898 18.0208V18.0208" stroke="#6A8175" stroke-width="1.49333" stroke-linecap="round" stroke-linejoin="round"/>
</svg>
