<svg width="24" height="24" viewBox="0 0 24 24" fill="none" xmlns="http://www.w3.org/2000/svg">
<path d="M8.42383 14.624C9.40109 14.624 10.2234 15.2822 10.4756 16.1787H19.4658C19.7853 16.1787 20.0449 16.4373 20.0449 16.7568C20.0449 17.0763 19.7853 17.335 19.4658 17.335H10.4756C10.2234 18.2314 9.40106 18.8887 8.42383 18.8887C7.44678 18.8885 6.62523 18.2313 6.37305 17.335H4.47949C4.16003 17.335 3.90043 17.0763 3.90039 16.7568C3.90039 16.4373 4.16001 16.1787 4.47949 16.1787H6.37305C6.62519 15.2823 7.44674 14.6242 8.42383 14.624ZM8.42578 15.7773C7.8848 15.7775 7.44629 16.2158 7.44629 16.7568C7.44633 17.2978 7.88482 17.7362 8.42578 17.7363C8.96687 17.7363 9.40621 17.2979 9.40625 16.7568C9.40625 16.2157 8.9669 15.7773 8.42578 15.7773ZM15.5205 9.76172C16.4976 9.7618 17.3191 10.42 17.5713 11.3164H19.4658C19.7851 11.3167 20.0439 11.5752 20.0439 11.8945C20.0439 12.2138 19.7851 12.4724 19.4658 12.4727H17.5713C17.3191 13.369 16.4976 14.0263 15.5205 14.0264C14.5434 14.0264 13.722 13.369 13.4697 12.4727H4.47852C4.15906 12.4727 3.90044 12.214 3.90039 11.8945C3.90039 11.575 4.15903 11.3164 4.47852 11.3164H13.4688C13.7209 10.4199 14.5432 9.76172 15.5205 9.76172ZM15.5186 10.915C14.9774 10.915 14.5391 11.3534 14.5391 11.8945C14.5391 12.4356 14.9775 12.874 15.5186 12.874C16.0596 12.874 16.498 12.4356 16.498 11.8945C16.498 11.3535 16.0596 10.9151 15.5186 10.915ZM8.42383 4.90039C9.40094 4.90039 10.2223 5.55779 10.4746 6.4541H19.4658C19.7853 6.4541 20.0449 6.71278 20.0449 7.03223C20.0449 7.35171 19.7853 7.61035 19.4658 7.61035H10.4756C10.2235 8.50692 9.40112 9.16504 8.42383 9.16504C7.44672 9.16488 6.62517 8.50677 6.37305 7.61035H4.47949C4.16001 7.61035 3.90039 7.35171 3.90039 7.03223C3.90044 6.71278 4.16004 6.4541 4.47949 6.4541H6.37305C6.62525 5.5578 7.4468 4.90055 8.42383 4.90039ZM8.42578 6.05273C7.88483 6.05289 7.44634 6.49125 7.44629 7.03223C7.44629 7.57325 7.8848 8.01156 8.42578 8.01172C8.9669 8.01172 9.40625 7.57334 9.40625 7.03223C9.4062 6.49115 8.96687 6.05273 8.42578 6.05273Z" fill="#434547" stroke="#434547" stroke-width="0.2"/>
</svg>
