<svg width="32" height="32" viewBox="0 0 32 32" fill="none" xmlns="http://www.w3.org/2000/svg">
<path d="M12 5.33203H9.33333C8.59695 5.33203 8 5.92899 8 6.66537V25.332C8 26.0684 8.59696 26.6654 9.33333 26.6654H12C12.7364 26.6654 13.3333 26.0684 13.3333 25.332V6.66536C13.3333 5.92898 12.7364 5.33203 12 5.33203Z" fill="#26292C"/>
<path d="M22.666 5.33203H19.9993C19.263 5.33203 18.666 5.92899 18.666 6.66537V25.332C18.666 26.0684 19.263 26.6654 19.9994 26.6654H22.666C23.4024 26.6654 23.9993 26.0684 23.9993 25.332V6.66536C23.9993 5.92898 23.4024 5.33203 22.666 5.33203Z" fill="#26292C"/>
</svg>
