<svg width="24" height="24" viewBox="0 0 24 24" fill="none" xmlns="http://www.w3.org/2000/svg">
<path d="M5.65364 7.90525C5.6087 7.32431 6.06798 6.82812 6.65066 6.82812H17.3513C17.934 6.82812 18.3933 7.32431 18.3484 7.90525L17.3964 20.2121C17.3561 20.7329 16.9217 21.135 16.3993 21.135H7.60267C7.0803 21.135 6.64594 20.7329 6.60565 20.2121L5.65364 7.90525Z" stroke="#6A8175" stroke-width="1.6" stroke-linecap="round" stroke-linejoin="round"/>
<path d="M3.83594 6.82812H20.1602" stroke="#6A8175" stroke-width="1.6" stroke-linecap="round" stroke-linejoin="round"/>
<path d="M9.03125 6.5555V3.95508C9.03125 3.40279 9.47897 2.95508 10.0313 2.95508H13.9734C14.5256 2.95508 14.9734 3.40279 14.9734 3.95508V6.5555" stroke="#6A8175" stroke-width="1.6" stroke-linecap="round" stroke-linejoin="round"/>
<path d="M10 14.6523V20.8438" stroke="#6A8175" stroke-width="1.6" stroke-linecap="round" stroke-linejoin="round"/>
<path d="M14 14.6523V20.8438" stroke="#6A8175" stroke-width="1.6" stroke-linecap="round" stroke-linejoin="round"/>
</svg>
