<svg width="32" height="32" viewBox="0 0 32 32" fill="none" xmlns="http://www.w3.org/2000/svg">
<path d="M25.1594 17.3334C24.4928 17.3334 23.9461 17.8267 23.8528 18.48C23.2128 22.9734 18.8261 26.2667 13.9594 25.0934C10.9594 24.3734 8.74611 22.0667 8.10611 19.0534C7.02611 13.8934 10.9594 9.33338 15.9328 9.33338V13.0534C15.9328 13.6534 16.6528 13.9467 17.0661 13.52L22.1194 8.46671C22.3861 8.20004 22.3861 7.78671 22.1194 7.52004L17.0661 2.46671C16.6528 2.05338 15.9328 2.34671 15.9328 2.93338V6.66671C9.34611 6.66671 4.14611 12.64 5.47944 19.4667C6.27944 23.6134 9.34611 26.8 13.4661 27.72C19.9061 29.16 25.6661 24.7867 26.4928 18.8267C26.6128 18.04 25.9594 17.3334 25.1594 17.3334ZM16.5728 20.2C16.5061 20.2934 16.4261 20.3734 16.3328 20.4267C16.2394 20.48 16.1061 20.5067 15.9728 20.5067C15.7461 20.5067 15.5594 20.44 15.4128 20.3067C15.2661 20.1734 15.1861 19.9867 15.1594 19.76H14.0394C14.0528 20.0267 14.1061 20.2534 14.2128 20.4667C14.3194 20.68 14.4661 20.84 14.6394 20.9867C14.8128 21.1334 15.0261 21.24 15.2528 21.3067C15.4794 21.3734 15.7194 21.4134 15.9594 21.4134C16.2794 21.4134 16.5728 21.36 16.8128 21.2534C17.0528 21.1467 17.2528 21.0134 17.4128 20.84C17.5728 20.6667 17.6928 20.4667 17.7728 20.24C17.8528 20.0134 17.8928 19.7734 17.8928 19.52C17.8928 19.2267 17.8528 18.9467 17.7728 18.72C17.6928 18.4934 17.5861 18.28 17.4394 18.12C17.2928 17.96 17.1061 17.8267 16.8928 17.7467C16.6794 17.6667 16.4394 17.6134 16.1594 17.6134C16.0661 17.6134 15.9728 17.6267 15.8928 17.64C15.8128 17.6534 15.7194 17.6667 15.6528 17.6934C15.5861 17.72 15.5194 17.7334 15.4528 17.76C15.3861 17.7867 15.3461 17.8134 15.3061 17.8267L15.4528 16.6H17.7194V15.6534H14.5328L14.1994 18.5467L15.0928 18.7734C15.1328 18.7334 15.1728 18.6934 15.2261 18.6534C15.2794 18.6134 15.3194 18.5867 15.3861 18.56C15.4528 18.5334 15.5194 18.5067 15.5861 18.4934C15.6528 18.48 15.7594 18.4667 15.8528 18.4667C16.0128 18.4667 16.1461 18.4934 16.2528 18.5334C16.3594 18.5734 16.4661 18.6534 16.5328 18.7334C16.5994 18.8134 16.6661 18.92 16.7061 19.0534C16.7461 19.1867 16.7594 19.3067 16.7594 19.4667C16.7594 19.6267 16.7461 19.76 16.7194 19.88C16.6928 20 16.6394 20.1067 16.5728 20.2Z" fill="#394045"/>
</svg>
