<svg width="32" height="32" viewBox="0 0 32 32" fill="none" xmlns="http://www.w3.org/2000/svg">
<path d="M15.9994 6.66606V2.94606C15.9994 2.34606 15.2794 2.05272 14.8661 2.47939L9.79939 7.53272C9.53272 7.79939 9.53272 8.21272 9.79939 8.47939L14.8527 13.5327C15.2794 13.9461 15.9994 13.6527 15.9994 13.0527V9.33272C20.9727 9.33272 24.9061 13.8927 23.8127 19.0527C23.1861 22.0661 20.9594 24.3727 17.9594 25.0927C13.1061 26.2661 8.71939 22.9594 8.06605 18.4794C7.98605 17.8261 7.42605 17.3327 6.77272 17.3327C5.97272 17.3327 5.33272 18.0394 5.43939 18.8394C6.27939 24.7994 12.0261 29.1727 18.4661 27.7327C22.5861 26.8127 25.6527 23.6261 26.4527 19.4794C27.7861 12.6394 22.5861 6.66606 15.9994 6.66606ZM14.2527 18.5327L14.5861 15.6394H17.7727V16.5861H15.5061L15.3594 17.8127C15.3994 17.7861 15.4527 17.7727 15.5061 17.7461C15.5594 17.7194 15.6261 17.6927 15.7061 17.6794C15.7861 17.6661 15.8661 17.6394 15.9461 17.6261C16.0261 17.6127 16.1194 17.5994 16.2127 17.5994C16.4927 17.5994 16.7327 17.6394 16.9461 17.7327C17.1594 17.8261 17.3461 17.9461 17.4927 18.1061C17.6394 18.2661 17.7594 18.4661 17.8261 18.7061C17.8927 18.9461 17.9461 19.2127 17.9461 19.5061C17.9461 19.7594 17.9061 19.9994 17.8261 20.2261C17.7461 20.4527 17.6261 20.6527 17.4661 20.8261C17.3061 20.9994 17.1061 21.1461 16.8661 21.2394C16.6261 21.3327 16.3461 21.3994 16.0127 21.3994C15.7727 21.3994 15.5327 21.3594 15.3061 21.2927C15.0794 21.2261 14.8794 21.1061 14.6927 20.9727C14.5061 20.8394 14.3727 20.6527 14.2661 20.4527C14.1594 20.2527 14.0927 20.0127 14.0927 19.7461H15.2127C15.2394 19.9861 15.3194 20.1727 15.4661 20.2927C15.6127 20.4127 15.7994 20.4927 16.0261 20.4927C16.1727 20.4927 16.2927 20.4661 16.3861 20.4127C16.4794 20.3594 16.5727 20.2794 16.6261 20.1861C16.6794 20.0927 16.7327 19.9861 16.7727 19.8527C16.8127 19.7194 16.8127 19.5861 16.8127 19.4394C16.8127 19.2927 16.7994 19.1594 16.7594 19.0261C16.7194 18.8927 16.6661 18.7994 16.5861 18.7061C16.5061 18.6127 16.4127 18.5461 16.3061 18.5061C16.1994 18.4661 16.0527 18.4394 15.9061 18.4394C15.7994 18.4394 15.7061 18.4527 15.6394 18.4661C15.5727 18.4794 15.4927 18.5061 15.4394 18.5327C15.3861 18.5594 15.3327 18.5994 15.2794 18.6261C15.2261 18.6527 15.1861 18.7061 15.1461 18.7461L14.2527 18.5327Z" fill="#7A8A93"/>
</svg>
