<svg width="55" height="54" viewBox="0 0 55 54" fill="none" xmlns="http://www.w3.org/2000/svg">
<g clip-path="url(#clip0_1087_9657)">
<g clip-path="url(#clip1_1087_9657)">
<path d="M27.25 54C42.1617 54 54.25 41.9117 54.25 27C54.25 12.0883 42.1617 0 27.25 0C12.3383 0 0.25 12.0883 0.25 27C0.25 41.9117 12.3383 54 27.25 54Z" fill="#FBE144"/>
<g clip-path="url(#clip2_1087_9657)">
<path d="M20.1109 24.6953C19.6426 24.6953 19.258 24.9946 18.9554 25.5949C18.9554 25.5949 18.9538 25.5997 18.9522 25.6014C18.9281 25.6496 18.9056 25.6995 18.883 25.7526C18.6062 25.9441 18.4163 26.2563 18.3906 26.6184C18.3359 27.4263 18.3632 28.1698 18.4743 28.8505C18.5628 29.475 18.6609 30.0141 18.7688 30.4711L18.772 30.4856C18.8074 30.6288 18.8444 30.7511 18.8814 30.8525C19.1035 31.4576 19.464 31.7602 19.9645 31.7602C20.0128 31.7602 20.0626 31.7569 20.1125 31.7521C20.1125 31.7521 20.1254 31.7521 20.1302 31.7521C20.5921 31.7521 20.9687 31.4995 21.26 30.9925C21.3211 30.8879 21.3807 30.764 21.4386 30.624C21.5851 30.2699 21.688 29.8708 21.7476 29.4251C21.7476 29.4138 21.7508 29.4025 21.7508 29.3929C21.8071 28.8618 21.8361 28.342 21.8393 27.8319C21.8458 27.23 21.8168 26.7761 21.754 26.4704C21.6897 26.1389 21.5979 25.8556 21.4788 25.6223C21.3581 25.3857 21.2069 25.1894 21.0266 25.0349C20.9558 24.9753 20.8786 24.9238 20.7965 24.882C20.5503 24.7597 20.3217 24.6969 20.1109 24.6969V24.6953Z" fill="#1C1D1E"/>
<path d="M34.5607 25.5313C34.5253 25.5924 34.4883 25.6487 34.4497 25.7002C34.4497 25.7002 34.4513 25.6874 34.4529 25.6809C34.4931 25.6343 34.5285 25.5844 34.5607 25.5313ZM34.2742 25.8499C34.226 25.8869 34.1696 25.9223 34.1069 25.9561C34.1664 25.9255 34.2211 25.8901 34.2742 25.8499ZM33.5629 23.7578C33.2266 23.7578 32.953 23.8817 32.7406 24.1296C32.6794 24.1859 32.6247 24.247 32.5732 24.3162C31.9681 24.3838 31.5159 24.9149 31.5529 25.5297C31.6189 26.5966 31.6623 27.2194 31.6833 27.3997C31.6881 27.4319 31.6929 27.4657 31.6977 27.4962C31.7669 28.0144 31.841 28.4361 31.923 28.7611L31.9263 28.774C32.0341 29.1828 32.1805 29.5223 32.3656 29.7927C32.6183 30.1596 32.9369 30.4042 33.3215 30.5266C33.3569 30.5378 33.3939 30.5475 33.431 30.5555C33.5517 30.5813 33.6691 30.5941 33.7802 30.5941C34.308 30.5941 34.7297 30.3061 35.0435 29.7283C35.1899 29.458 35.3122 29.0975 35.4088 28.6469C35.4281 28.5568 35.4474 28.4602 35.4651 28.3604C35.4667 28.3508 35.4683 28.3411 35.47 28.3299C35.655 27.1197 35.655 26.1814 35.4732 25.5136C35.3251 24.9423 34.992 24.4514 34.4754 24.0443C34.366 23.9574 34.2404 23.8914 34.0682 23.8383L34.1004 23.8479C34.0876 23.8447 34.0763 23.8399 34.0634 23.8367C33.8832 23.7852 33.7158 23.7578 33.5629 23.7578Z" fill="#1C1D1E"/>
<path d="M25.8115 27.7422C25.1967 27.7422 24.6866 28.2298 24.6624 28.8494C24.627 29.7812 24.6849 30.47 24.8362 30.9157C24.8588 30.9817 24.8829 31.0445 24.9102 31.1056C25.0438 31.4436 25.1629 31.6995 25.2675 31.8733C25.3657 32.0358 25.4783 32.171 25.6055 32.2756C25.9322 32.5782 26.32 32.731 26.7706 32.7359C26.7738 32.7359 26.777 32.7359 26.7803 32.7359C26.8173 32.7359 26.8527 32.7343 26.8897 32.731C28.124 32.6136 29.2843 31.5675 30.3706 29.5929C30.6764 29.0361 30.4736 28.3376 29.9168 28.0319C29.7414 27.9353 29.5515 27.8902 29.3632 27.8902C28.9577 27.8902 28.5634 28.1059 28.3542 28.4857C27.8505 29.403 27.4159 29.9984 27.0538 30.2704C27.049 30.2575 27.0442 30.2447 27.0378 30.2302C27.0313 30.2125 27.0233 30.1932 27.0152 30.1755C26.9557 29.9968 26.938 29.5848 26.9621 28.9379C26.9863 28.3038 26.4906 27.7695 25.8565 27.7454C25.842 27.7454 25.8276 27.7454 25.8131 27.7454L25.8115 27.7422Z" fill="#1C1D1E"/>
<path d="M29.3008 37.6131C29.2573 37.4956 29.201 37.3943 29.1366 37.3057C29.1044 36.9034 28.8566 36.5381 28.3287 36.4319C26.4941 36.0617 24.4503 36.6733 23.5185 38.4049C22.6028 40.1059 22.8603 42.5183 24.3232 43.8411C25.7249 45.1093 28.0535 45.0513 29.1881 43.4646C30.3661 41.8166 29.9477 39.3801 29.3008 37.6131ZM27.5868 41.609C27.3921 42.4217 26.6325 42.7693 25.9164 42.2479C25.1439 41.6831 25.0635 40.3361 25.4642 39.5427C25.8037 38.8716 26.5279 38.5578 27.2489 38.5578C27.5756 39.5201 27.8234 40.6209 27.5868 41.609Z" fill="#1C1D1E"/>
</g>
</g>
<g clip-path="url(#clip3_1087_9657)">
<path d="M15.2491 8.14062C15.202 8.14062 15.1538 8.14416 15.1055 8.15239C14.6477 8.23124 14.3406 8.66666 14.4183 9.12444C14.5006 9.60694 14.6207 10.0306 14.776 10.3966C14.776 10.3966 14.7795 10.406 14.7807 10.4107C14.8666 10.6449 15.2056 11.331 15.7975 12.4678C15.8069 12.4854 15.8163 12.5019 15.8269 12.5196C16.3424 13.3586 16.846 13.9353 17.3391 14.2518C17.4792 14.3413 17.6369 14.3848 17.7922 14.3848C18.0687 14.3848 18.3406 14.2483 18.5006 13.9976C18.7513 13.6069 18.6371 13.0868 18.2464 12.8361C17.9734 12.6608 17.6498 12.2713 17.2756 11.6652C16.7307 10.6202 16.4259 10.0118 16.3624 9.83995C16.3541 9.81288 16.3435 9.78581 16.3318 9.75875C16.2235 9.51044 16.1376 9.20447 16.0752 8.84083C16.0046 8.4313 15.6492 8.1418 15.2479 8.1418L15.2491 8.14062Z" fill="#1C1D1E"/>
<path d="M19.4235 7.17188C18.9586 7.17188 18.582 7.54846 18.582 8.0133C18.582 8.70527 18.6103 9.37135 18.6691 10.0115C18.7021 10.4081 18.7609 10.7894 18.8468 11.1554C19.0104 11.9215 19.3387 12.5935 19.8318 13.1713C19.9977 13.3655 20.2343 13.4655 20.472 13.4655C20.665 13.4655 20.8592 13.3996 21.018 13.2643C21.3711 12.963 21.4123 12.4322 21.111 12.0792C20.8003 11.7156 20.5932 11.2884 20.4908 10.7976C20.4897 10.7906 20.4885 10.7847 20.4861 10.7776C20.4179 10.4893 20.3708 10.1857 20.3449 9.86796V9.8609C20.2908 9.27132 20.2649 8.65584 20.2649 8.01448C20.2649 7.54963 19.8883 7.17305 19.4235 7.17305V7.17188Z" fill="#1C1D1E"/>
<path d="M24.6169 6.29024C24.3368 6.29024 24.0626 6.43028 23.9038 6.68447C23.7508 6.92807 23.6519 7.1905 23.606 7.47176C23.5519 7.75302 23.5154 8.1096 23.4966 8.53914V8.5462C23.4907 8.70271 23.4907 8.86041 23.4966 9.02045C23.4966 9.02987 23.4966 9.03928 23.4966 9.0487C23.499 9.10989 23.5072 9.22757 23.5213 9.39939C23.5319 9.5665 23.5872 9.93484 23.6861 10.5032C23.7567 10.9116 24.1121 11.1999 24.5134 11.1999C24.5616 11.1999 24.6099 11.1964 24.6581 11.187C25.1159 11.107 25.4219 10.6715 25.343 10.2149C25.2536 9.6983 25.2053 9.38997 25.1995 9.28995C25.1995 9.28171 25.1995 9.27347 25.1971 9.26523C25.1853 9.12284 25.1783 9.0334 25.1759 8.99574C25.1759 8.98633 25.1759 8.97691 25.1759 8.9675C25.1712 8.84629 25.1712 8.72743 25.1747 8.60975C25.19 8.2567 25.2171 7.98015 25.2571 7.77891C25.2595 7.76832 25.2606 7.75773 25.263 7.74596C25.2724 7.68594 25.2936 7.62946 25.3277 7.5765C25.5749 7.18344 25.4548 6.66447 25.0618 6.41734C24.9229 6.33025 24.7687 6.28906 24.6158 6.28906L24.6169 6.29024Z" fill="#1C1D1E"/>
<path d="M29.4108 7.21094C29.0919 7.21094 28.7871 7.39334 28.6459 7.70167C28.4094 8.21829 28.2117 8.86672 28.0528 9.6493C28.0516 9.65519 28.0504 9.66107 28.0493 9.66813C27.8845 10.5837 27.7492 11.5758 27.6409 12.6467C27.595 13.1091 27.9316 13.521 28.3941 13.5669C28.4223 13.5693 28.4506 13.5716 28.4788 13.5716C28.906 13.5716 29.2708 13.248 29.3143 12.8149C29.4167 11.7935 29.5462 10.8473 29.7015 9.97881C29.8345 9.32685 29.991 8.80199 30.1734 8.40423C30.3664 7.98175 30.1817 7.48278 29.7592 7.28978C29.6462 7.238 29.5262 7.21329 29.4097 7.21329L29.4108 7.21094Z" fill="#1C1D1E"/>
<path d="M34.5346 9.05469C34.3134 9.05469 34.0933 9.14177 33.9274 9.31359C33.3884 9.87493 33.0283 10.3268 32.847 10.6705C32.5446 11.2236 32.2987 11.832 32.1104 12.4957C31.9833 12.9429 32.2433 13.4077 32.6905 13.5337C32.767 13.5548 32.8447 13.5654 32.92 13.5654C33.2872 13.5654 33.6237 13.3242 33.7285 12.9535C33.8826 12.4074 34.0827 11.912 34.3275 11.4672C34.3298 11.4636 34.3322 11.4589 34.3345 11.4554C34.4428 11.2506 34.7111 10.9246 35.1407 10.4775C35.4619 10.1421 35.4513 9.61014 35.116 9.28887C34.9524 9.13236 34.7429 9.05469 34.5334 9.05469H34.5346Z" fill="#1C1D1E"/>
</g>
</g>
<defs>
<clipPath id="clip0_1087_9657">
<rect width="54" height="54" fill="white" transform="translate(0.25)"/>
</clipPath>
<clipPath id="clip1_1087_9657">
<rect width="54" height="54" fill="white" transform="translate(0.25)"/>
</clipPath>
<clipPath id="clip2_1087_9657">
<rect width="17.2485" height="20.9709" fill="white" transform="translate(18.3633 23.7578)"/>
</clipPath>
<clipPath id="clip3_1087_9657">
<rect width="20.9709" height="8.09062" fill="white" transform="translate(14.4062 6.28906)"/>
</clipPath>
</defs>
</svg>
