<svg width="55" height="54" viewBox="0 0 55 54" fill="none" xmlns="http://www.w3.org/2000/svg">
<g clip-path="url(#clip0_1087_9694)">
<path d="M27.25 54.0078C42.1617 54.0078 54.25 41.9195 54.25 27.0078C54.25 12.0961 42.1617 0.0078125 27.25 0.0078125C12.3383 0.0078125 0.25 12.0961 0.25 27.0078C0.25 41.9195 12.3383 54.0078 27.25 54.0078Z" fill="#FF6565"/>
<g clip-path="url(#clip1_1087_9694)">
<path d="M21.2746 26.3053C21.045 26.2796 20.8004 26.2842 20.5392 26.3204C20.0575 26.3884 19.6951 26.7628 19.6226 27.2204C19.5683 27.317 19.529 27.4227 19.5048 27.536C19.3871 28.1113 19.3584 28.6186 19.4142 29.0611C19.4807 29.6152 19.6619 30.0924 19.9578 30.4925C20.0182 30.5741 20.0907 30.6481 20.1723 30.71C20.4758 30.941 20.7657 31.0724 21.0435 31.1026C21.5131 31.1554 21.9465 30.9229 22.3421 30.4035C22.3542 30.3884 22.3663 30.3717 22.3784 30.3551C22.5324 30.1392 22.6683 29.8644 22.7831 29.5292V29.5261C23.0096 28.8633 23.0745 28.2895 22.9794 27.8047C22.9431 27.6175 22.8827 27.4423 22.7997 27.2808L22.7936 27.2702C22.5883 26.8821 22.2772 26.6088 21.8589 26.4503C21.7683 26.4125 21.6732 26.3823 21.5751 26.3567C21.4784 26.3325 21.3803 26.3144 21.2776 26.3038L21.2746 26.3053Z" fill="#1C1D1E"/>
<path d="M33.4419 25.8937C33.4148 25.8907 33.3876 25.8876 33.3589 25.8861C33.3513 25.8861 33.3453 25.8861 33.3378 25.8861C32.6205 25.8499 31.9833 26.1111 31.4261 26.6728C31.0818 27.0201 31.0214 27.5441 31.2464 27.9533C31.2434 28.2402 31.2585 28.5573 31.2932 28.9016C31.2932 28.9061 31.2932 28.9122 31.2947 28.9167C31.3174 29.1145 31.3687 29.3063 31.4487 29.492C31.4699 29.5418 31.494 29.5917 31.5182 29.64C31.5303 29.6641 31.5439 29.6883 31.559 29.711C31.7356 29.9963 31.9229 30.2259 32.1222 30.3995C32.4091 30.6487 32.7141 30.7921 33.0373 30.8299C33.1822 30.8465 33.3317 30.8419 33.4857 30.8148C33.5084 30.8102 33.531 30.8057 33.5537 30.8012C33.8859 30.7211 34.1728 30.5369 34.4174 30.2485C34.434 30.2289 34.4491 30.2093 34.4642 30.1896C34.6348 29.9571 34.7617 29.7351 34.8447 29.5222C34.8689 29.4618 34.8885 29.3999 34.9066 29.3395C35.1482 28.589 35.1784 27.9005 34.9972 27.2738C34.9867 27.2346 34.9731 27.1968 34.958 27.1606C34.8825 26.9794 34.8055 26.8238 34.7254 26.6955C34.5956 26.4871 34.4416 26.3255 34.2664 26.2108C34.0233 26.0356 33.7485 25.9299 33.4435 25.8952L33.4419 25.8937Z" fill="#1C1D1E"/>
<path d="M22.0115 24.3213C22.0311 24.3303 22.0492 24.3394 22.0689 24.3469C22.0734 24.3484 22.0794 24.3515 22.0855 24.3545C22.0613 24.3439 22.0356 24.3333 22.0115 24.3213ZM22.5551 22.2571C22.3618 22.2344 22.1655 22.2662 21.9677 22.3507C21.7321 22.4504 21.5389 22.6331 21.4241 22.8626C21.2187 23.2733 21.2701 23.6886 21.5766 24.1084C21.5917 24.128 21.6068 24.1491 21.6234 24.1703C21.8091 24.4073 22.0734 24.5463 22.3512 24.5765C22.3694 24.578 22.386 24.5795 22.4041 24.581C22.4041 24.581 22.4162 24.5916 22.4222 24.5961C22.4267 24.6006 22.4328 24.6051 22.4373 24.6082C22.4947 24.655 22.617 24.7728 22.8027 24.963C23.6091 25.8041 24.0862 26.2933 24.2357 26.4307C24.4109 26.5908 24.6238 26.6829 24.8427 26.7071C25.1734 26.7448 25.5177 26.6285 25.7608 26.3643C26.164 25.9249 26.1338 25.2424 25.6944 24.8392C25.5781 24.7335 25.1311 24.2729 24.352 23.4606L24.3444 23.453L24.3429 23.45C24.1104 23.2129 23.9352 23.0453 23.8159 22.9472C23.5064 22.6844 23.215 22.4942 22.9432 22.3734C22.8148 22.3099 22.6865 22.2707 22.5551 22.2556V22.2571Z" fill="#1C1D1E"/>
<path d="M33.2058 20.1944C32.9642 20.1672 32.7121 20.22 32.4916 20.365C29.9926 22.0064 28.5113 23.2415 28.0477 24.072C27.7563 24.593 27.9435 25.2498 28.4629 25.5398C28.5913 25.6122 28.7287 25.6545 28.8676 25.6696C29.2874 25.7179 29.7132 25.5156 29.9322 25.123C30.2251 24.6005 31.4724 23.6145 33.677 22.1664C34.1753 21.8388 34.3142 21.1698 33.9865 20.6715C33.8038 20.3922 33.5139 20.2261 33.2058 20.1913V20.1944Z" fill="#1C1D1E"/>
<path d="M33.9999 34.5693C33.7432 34.5406 33.4759 34.6025 33.2509 34.7641C31.4721 36.037 29.6601 37.1378 27.8134 38.0649C27.7832 38.08 27.753 38.0981 27.7228 38.1163C27.5703 38.2129 27.4359 38.3141 27.3212 38.4228C27.1249 38.607 26.9814 38.8094 26.8908 39.0328C26.6658 39.584 26.9301 40.2152 27.4812 40.4402C27.5748 40.4794 27.6715 40.5036 27.7681 40.5141C28.1924 40.5625 28.6152 40.3526 28.8296 39.9721C28.8296 39.9721 28.8327 39.969 28.8342 39.969C30.764 38.9966 32.656 37.8475 34.5087 36.5202C34.9935 36.1729 35.1052 35.4994 34.7579 35.0147C34.5722 34.7565 34.2943 34.604 34.0014 34.5708L33.9999 34.5693Z" fill="#1C1D1E"/>
</g>
<g clip-path="url(#clip2_1087_9694)">
<path d="M30.5135 3.92969C30.1169 3.92969 29.7489 4.18584 29.6267 4.58503C28.433 8.44165 27.0781 10.9863 25.5607 12.2177C25.432 12.2528 25.3085 12.2697 25.1901 12.2697C25.0055 12.2697 24.8313 12.2281 24.67 12.1435C24.709 12.046 24.748 11.9472 24.7845 11.8458C24.7949 11.8185 24.804 11.7899 24.8118 11.7613C25.2708 10.0462 25.3007 8.82913 24.9015 8.10878C24.6713 7.69399 24.332 7.42613 23.8821 7.30521C23.8158 7.287 23.7481 7.274 23.6779 7.2636C23.6415 7.2584 23.6038 7.2545 23.5661 7.2506C23.5583 7.2506 23.5492 7.2493 23.5414 7.2493C23.4881 7.2467 23.4348 7.24409 23.3828 7.24409C23.1838 7.24409 22.9979 7.2675 22.8249 7.31431C22.2658 7.46514 21.8887 7.81232 21.695 8.35843C21.6287 8.54307 21.5897 8.74462 21.5767 8.96436C21.5754 8.98907 21.5741 9.01377 21.5728 9.03848C21.4909 10.1229 21.7002 11.1137 22.2034 12.0122C22.2853 12.1838 22.3711 12.3464 22.4609 12.4985C21.8978 13.5361 21.2139 14.2786 20.4077 14.7259C20.2465 14.8039 20.0801 14.8429 19.9084 14.8429C19.5222 14.8429 19.11 14.644 18.6719 14.2461L18.6654 14.2396C17.9931 13.6415 17.629 12.8626 17.5757 11.903C17.5471 11.4089 17.1375 11.0266 16.6486 11.0266C16.6304 11.0266 16.6135 11.0266 16.5953 11.0279C16.083 11.0565 15.6916 11.496 15.7202 12.0083C15.8034 13.4815 16.373 14.6882 17.4301 15.6283C18.2402 16.3616 19.0528 16.7283 19.8707 16.7283C20.3349 16.7283 20.8017 16.61 21.2685 16.372C21.2776 16.3668 21.288 16.3616 21.2971 16.3564C22.284 15.8116 23.1201 14.9859 23.8079 13.8768C24.1798 14.0732 24.5868 14.1707 25.0276 14.1707C25.4281 14.1707 25.8585 14.0901 26.3162 13.9275C26.4072 13.895 26.4917 13.8495 26.5684 13.791C28.4499 12.3581 30.0623 9.47277 31.4042 5.13374C31.5563 4.64354 31.2819 4.12343 30.7904 3.9713C30.6994 3.94269 30.6071 3.92969 30.5161 3.92969L30.5135 3.92969Z" fill="#1C1D1E"/>
</g>
</g>
<defs>
<clipPath id="clip0_1087_9694">
<rect width="54" height="54" fill="white" transform="translate(0.25)"/>
</clipPath>
<clipPath id="clip1_1087_9694">
<rect width="15.7282" height="20.3382" fill="white" transform="translate(19.3867 20.1875)"/>
</clipPath>
<clipPath id="clip2_1087_9694">
<rect width="15.7282" height="12.7973" fill="white" transform="translate(15.7148 3.92969)"/>
</clipPath>
</defs>
</svg>
