<svg width="55" height="54" viewBox="0 0 55 54" fill="none" xmlns="http://www.w3.org/2000/svg">
<g clip-path="url(#clip0_1087_9679)">
<path d="M27.75 54C42.6617 54 54.75 41.9117 54.75 27C54.75 12.0883 42.6617 0 27.75 0C12.8383 0 0.75 12.0883 0.75 27C0.75 41.9117 12.8383 54 27.75 54Z" fill="#FF8D2E"/>
<path d="M17.6375 8.10876C17.667 8.11257 17.6947 8.11734 17.7213 8.124C17.6937 8.11734 17.6661 8.11257 17.6375 8.10876ZM30.2048 2.25C30.0733 2.25 29.9399 2.27382 29.8037 2.3224C29.4055 2.46339 28.9616 2.86636 28.471 3.53131C28.3204 3.34745 28.1452 3.17406 27.9461 3.01212C27.9146 2.98639 27.8813 2.96353 27.8451 2.94448C27.5936 2.80539 27.3478 2.73585 27.1068 2.73585C26.5838 2.73585 26.0855 3.06451 25.6121 3.72088C25.2834 3.40842 24.9414 3.25218 24.587 3.25218C24.2698 3.25218 23.9411 3.37698 23.603 3.62657C23.5934 3.63419 23.5839 3.64086 23.5744 3.64943C23.2667 3.90189 23.0047 4.16196 22.7865 4.42774C22.354 3.96 21.9025 3.72565 21.43 3.72565C21.148 3.72565 20.8593 3.80853 20.564 3.97524C20.5364 3.99048 20.5097 4.00858 20.485 4.02763C20.0429 4.36487 19.6904 4.73545 19.4266 5.13746C18.9207 4.57255 18.4615 4.24579 18.0481 4.1591C17.9595 4.14005 17.8718 4.13147 17.7861 4.13147C17.687 4.13147 17.5899 4.14386 17.4946 4.16863C17.4803 4.17244 17.4651 4.17625 17.4508 4.18101C16.6315 4.45251 16.1676 5.08507 16.0552 6.07868C16.0485 6.13679 16.0494 6.19585 16.058 6.25396C16.2743 7.72104 16.5277 8.65367 16.8182 9.05188C17.003 9.30433 17.2307 9.44151 17.5013 9.46342C17.5194 9.46533 17.5384 9.46533 17.5565 9.46533C17.9081 9.46533 18.2053 9.19573 18.2348 8.83944C18.2567 8.56222 18.11 8.30977 17.8795 8.18593C17.7366 7.91728 17.5832 7.239 17.4193 6.15108C17.4708 5.81956 17.5994 5.60426 17.8061 5.50423C18.0367 5.58521 18.4006 5.96817 18.8969 6.65407C18.8645 7.67912 19.1036 8.45076 19.6133 8.96995C19.7419 9.10142 19.9172 9.17382 20.0991 9.17382C20.1239 9.17382 20.1487 9.17287 20.1734 9.17001C20.3811 9.14714 20.5669 9.03092 20.6764 8.85373C20.7117 8.79752 20.7422 8.73846 20.7688 8.67749C21.0146 8.10971 20.867 7.34284 20.3249 6.37495C20.4811 5.92625 20.7946 5.51757 21.2642 5.14794C21.3004 5.1327 21.3366 5.12508 21.3757 5.12508C21.5691 5.12508 21.7958 5.31561 22.0578 5.69667C22.0692 5.71381 22.0797 5.73001 22.0911 5.74716C22.074 5.81289 22.0587 5.87957 22.0463 5.94531C22.0435 5.96245 22.0406 5.97865 22.0387 5.9958C21.9215 7.058 22.1788 7.85345 22.8104 8.38217C22.9342 8.48601 23.0895 8.54126 23.2476 8.54126C23.3143 8.54126 23.381 8.53174 23.4467 8.51173C23.6668 8.44409 23.8383 8.27071 23.9021 8.0497C24.1193 7.29806 24.0174 6.49403 23.5972 5.64046C23.7735 5.33466 24.0478 5.02696 24.4203 4.7183C24.4546 4.69544 24.4908 4.68401 24.528 4.68401C24.6299 4.68401 24.7452 4.76784 24.8728 4.9355C24.8881 4.97552 24.9024 5.01553 24.9157 5.05458C24.628 5.88815 24.6823 6.61502 25.0777 7.23519C25.2034 7.43334 25.4216 7.54956 25.6511 7.54956C25.6835 7.54956 25.7169 7.54765 25.7493 7.54194C26.0141 7.50288 26.2323 7.31235 26.3056 7.05514C26.4809 6.44068 26.4961 5.80241 26.3513 5.14032C26.3856 5.06887 26.4247 4.99457 26.4666 4.91836C26.7667 4.38773 26.9906 4.1229 27.1363 4.1229C27.143 4.1229 27.1497 4.1229 27.1554 4.1248C27.3945 4.33439 27.5679 4.57922 27.6774 4.85834C27.3802 5.55091 27.324 6.12345 27.5088 6.57405C27.5841 6.75791 27.6946 6.91605 27.8403 7.05037C27.8822 7.08943 27.928 7.12563 27.9756 7.15898C28.0928 7.24186 28.2309 7.28472 28.37 7.28472C28.45 7.28472 28.53 7.27043 28.6062 7.24186C28.8177 7.16374 28.9759 6.98559 29.0302 6.76744C29.1912 6.11583 29.2274 5.52233 29.1359 4.98504C29.5875 4.25722 29.9295 3.81519 30.1638 3.65801C30.5506 4.02954 30.5401 5.01934 30.1314 6.62835C30.039 6.99322 30.2591 7.36284 30.6239 7.45525C30.6802 7.46954 30.7364 7.47621 30.7916 7.47621C31.0955 7.47621 31.3727 7.27139 31.4508 6.96273C32.0815 4.47919 31.8119 2.94067 30.6439 2.34622C30.6163 2.33193 30.5868 2.31954 30.5573 2.30906C30.4429 2.27001 30.3267 2.25 30.2086 2.25L30.2048 2.25Z" fill="#1C1D1E"/>
<path d="M23.8895 20.7656C23.8726 20.7656 23.8557 20.7656 23.8379 20.7675C23.4682 20.7956 23.1923 21.1175 23.2205 21.4872C23.2646 22.0679 23.1942 22.5296 23.0084 22.873C22.8424 23.1713 22.6632 23.3402 22.4727 23.3806C22.3141 23.3806 22.1115 23.253 21.8656 22.9978C21.7924 22.8927 21.7089 22.72 21.6142 22.4789C21.6104 22.4695 21.6067 22.4611 21.6029 22.4517C21.571 22.3522 21.495 22.0576 21.3759 21.5678C21.3017 21.261 21.0268 21.0555 20.7247 21.0555C20.6722 21.0555 20.6196 21.0621 20.5661 21.0743C20.204 21.1625 19.9825 21.5247 20.0698 21.885C20.2049 22.4432 20.295 22.7857 20.3391 22.9114C20.3503 22.9443 20.3635 22.9762 20.3775 23.0053C20.5202 23.3627 20.6646 23.6386 20.812 23.8319C20.826 23.8506 20.842 23.8694 20.8579 23.8863C21.3824 24.4436 21.92 24.7214 22.4699 24.7214C22.513 24.7214 22.5553 24.7195 22.5984 24.7167C22.6144 24.7157 22.6294 24.7138 22.6444 24.711C23.2824 24.6163 23.7956 24.2175 24.1841 23.5166L24.1878 23.5101C24.4975 22.9358 24.6213 22.2274 24.5566 21.3858C24.5294 21.034 24.2357 20.7666 23.8885 20.7666L23.8895 20.7656Z" fill="#1C1D1E" stroke="#1C1D1E" stroke-width="0.7"/>
<path d="M32.522 19.2266C32.1767 19.2266 31.8831 19.4921 31.8549 19.843C31.7508 21.119 31.6485 21.9607 31.5472 22.3688C31.5453 22.3763 31.5434 22.3838 31.5415 22.3923C31.5143 22.5218 31.4852 22.6118 31.4552 22.6625C31.4252 22.67 31.4008 22.6738 31.383 22.6738C31.3764 22.6738 31.3698 22.6738 31.3651 22.6719C31.1728 22.5846 30.9776 22.4307 30.7797 22.2102C30.5564 21.865 30.4241 21.4005 30.3818 20.8169C30.3565 20.4641 30.0619 20.1949 29.7138 20.1949C29.6978 20.1949 29.681 20.1949 29.665 20.1967C29.2953 20.2239 29.0176 20.5448 29.0448 20.9136C29.1058 21.7533 29.3207 22.4458 29.6894 22.9918C29.7044 23.0143 29.7213 23.0359 29.7391 23.0566C30.076 23.4431 30.4344 23.7227 30.8144 23.8944C30.8885 23.9282 30.9645 23.9545 31.0443 23.9733C31.1531 23.9995 31.2647 24.0127 31.3792 24.0127C31.5387 24.0127 31.7048 23.9873 31.8774 23.9357C32.1017 23.8729 32.294 23.7481 32.4535 23.5632C32.6374 23.3512 32.7688 23.0603 32.8495 22.6916C32.9686 22.2121 33.0831 21.2992 33.1929 19.9509C33.2229 19.5822 32.948 19.2585 32.5793 19.2284C32.5605 19.2266 32.5427 19.2266 32.5239 19.2266H32.522Z" fill="#1C1D1E" stroke="#1C1D1E" stroke-width="0.7"/>
<path d="M30.6766 26.4688C30.2731 26.4688 29.8518 26.511 29.4146 26.5954C27.5662 26.9463 26.0462 27.6059 24.8537 28.5752C23.4847 29.5866 22.5399 30.7895 22.0192 32.1847C21.8897 32.5318 22.0651 32.9175 22.4123 33.0479C22.4892 33.077 22.569 33.0901 22.6469 33.0901C22.919 33.0901 23.1742 32.924 23.2746 32.6538C23.7052 31.5016 24.5028 30.4977 25.6671 29.641C25.6765 29.6345 25.685 29.6279 25.6934 29.6204C26.7124 28.79 28.0363 28.2205 29.666 27.9118H29.6679C29.9907 27.8489 30.3022 27.818 30.6015 27.818C32.2519 27.818 33.5542 28.76 34.5094 30.644C34.6276 30.8767 34.8631 31.0118 35.108 31.0118C35.2103 31.0118 35.3135 30.9884 35.411 30.9396C35.7413 30.7726 35.8736 30.3691 35.7057 30.0389C34.499 27.6594 32.8224 26.4688 30.6756 26.4688H30.6766Z" fill="#1C1D1E" stroke="#1C1D1E" stroke-width="0.7"/>
</g>
<defs>
<clipPath id="clip0_1087_9679">
<rect width="54" height="54" fill="white" transform="translate(0.75)"/>
</clipPath>
</defs>
</svg>
