<svg width="86" height="79" viewBox="0 0 86 79" fill="none" xmlns="http://www.w3.org/2000/svg">
<path d="M37.5 78.0078C57.9345 78.0078 74.5 61.4423 74.5 41.0078C74.5 20.5733 57.9345 4.00781 37.5 4.00781C17.0655 4.00781 0.5 20.5733 0.5 41.0078C0.5 61.4423 17.0655 78.0078 37.5 78.0078Z" fill="#DCE4E7"/>
<g clip-path="url(#clip0_900_16539)">
<path d="M39.0169 9.73119C39.2191 9.6291 39.454 9.58454 39.6966 9.61388C40.3431 9.69483 40.8017 10.2874 40.7207 10.9339C40.4864 12.7876 39.8269 14.4597 38.7416 15.9486C38.7365 15.9567 38.7291 15.9642 38.724 15.9723C38.3393 16.4722 37.902 16.9301 37.412 17.3424C37.4031 17.3505 37.395 17.3602 37.3847 17.3691C37.1623 17.5777 36.1519 18.3973 34.353 19.8262C34.1083 20.0275 33.835 20.2785 33.5316 20.5799C33.4403 20.6705 33.3386 20.7441 33.2294 20.7992C32.7867 21.0228 32.2311 20.9496 31.8607 20.5792C31.3998 20.1175 31.3997 19.3693 31.8614 18.9083C32.223 18.5461 32.5589 18.2394 32.8684 17.9868C32.8728 17.9845 32.8765 17.9808 32.8817 17.9764C34.5775 16.6292 35.5326 15.8579 35.7469 15.6626C35.7793 15.6277 35.8147 15.5951 35.8515 15.5654C36.217 15.2622 36.5432 14.9253 36.8279 14.5574C37.6749 13.3963 38.1894 12.09 38.3722 10.6402C38.423 10.2348 38.6746 9.90409 39.0125 9.73343L39.0169 9.73119Z" fill="#A7B5BC"/>
<path d="M33.0564 11.4898C33.3191 11.3571 33.6324 11.3211 33.9374 11.4153C34.5607 11.608 34.9108 12.2683 34.7181 12.8916C34.5765 13.352 34.2904 13.9076 33.8605 14.56C33.2994 15.4879 32.7782 16.2418 32.3007 16.8219C31.7248 17.5739 30.6695 18.6161 29.1348 19.9486C29.0589 20.0147 28.9786 20.0683 28.893 20.1115C28.4208 20.35 27.8304 20.2481 27.4694 19.8304C27.0423 19.3367 27.0955 18.5913 27.5869 18.1634C29.0177 16.9223 29.9692 15.9899 30.4399 15.367C30.4494 15.3529 30.4612 15.3395 30.473 15.3262C30.885 14.8292 31.3466 14.1553 31.8578 13.3082C31.8659 13.2948 31.8755 13.2807 31.8835 13.2674C32.1922 12.8004 32.3845 12.444 32.4604 12.1982C32.5582 11.8785 32.7797 11.6314 33.0571 11.4913L33.0564 11.4898Z" fill="#A7B5BC"/>
<path d="M29.7129 11.6688C30.2914 11.3767 30.9976 11.6053 31.2949 12.183C31.5937 12.7636 31.3659 13.4751 30.7853 13.7739C30.5322 13.9035 30.3529 13.9996 30.2504 14.0606C30.246 14.0629 30.2415 14.0651 30.2371 14.0673C30.1633 14.1083 30.0888 14.1515 30.0136 14.1969C29.608 14.4425 29.3432 14.6003 29.22 14.6717C29.0717 14.7596 28.801 14.913 28.4086 15.1334L28.4056 15.1349C28.0442 15.3359 27.6362 15.5512 27.1802 15.7815L27.1758 15.7837C26.8113 15.9678 26.5766 16.0826 26.4718 16.1318C26.3641 16.1862 26.1051 16.3078 25.6918 16.498L25.6859 16.5009C25.1553 16.7411 24.6025 16.974 24.0252 17.2026C23.4185 17.4423 22.7326 17.1442 22.4929 16.5374C22.2666 15.9646 22.5198 15.3218 23.0584 15.0498C23.0909 15.0334 23.1241 15.0185 23.1581 15.005C23.6984 14.7914 24.2158 14.5727 24.7103 14.349C25.0947 14.1715 25.3242 14.0648 25.3966 14.0283C25.3995 14.0268 25.4025 14.0253 25.4039 14.0246C25.4039 14.0246 25.4113 14.0209 25.4143 14.0194C25.4231 14.0149 25.432 14.0104 25.4408 14.0059C25.5213 13.9672 25.7448 13.8561 26.1145 13.6713C26.5395 13.4567 26.9194 13.2555 27.2521 13.0708C27.635 12.8571 27.891 12.7112 28.0208 12.6345L28.0252 12.6323C28.0252 12.6323 28.037 12.6263 28.0444 12.6226C28.1477 12.563 28.3984 12.4142 28.7967 12.1723L28.7982 12.1715L28.8085 12.1663C28.8911 12.1172 28.9737 12.0681 29.0563 12.0226C29.195 11.9415 29.409 11.826 29.6974 11.6785C29.7004 11.677 29.7034 11.6755 29.7063 11.674L29.7129 11.6688Z" fill="#A7B5BC"/>
</g>
<path d="M27.0264 31C26.4834 31 26.0374 31.3471 25.6866 32.0431C25.6866 32.0431 25.6848 32.0487 25.6829 32.0506C25.6549 32.1065 25.6288 32.1644 25.6027 32.226C25.2817 32.448 25.0615 32.81 25.0317 33.2299C24.9682 34.1666 24.9999 35.0287 25.1287 35.8181C25.2313 36.5421 25.3451 37.1672 25.4702 37.6971L25.4739 37.7139C25.515 37.88 25.5579 38.0218 25.6008 38.1394C25.8583 38.841 26.2763 39.1918 26.8566 39.1918C26.9126 39.1918 26.9704 39.1881 27.0283 39.1825C27.0283 39.1825 27.0432 39.1825 27.0488 39.1825C27.5844 39.1825 28.021 38.8895 28.3588 38.3017C28.4297 38.1804 28.4987 38.0368 28.5659 37.8744C28.7357 37.4639 28.8551 37.0011 28.9242 36.4842C28.9242 36.4712 28.9279 36.4581 28.9279 36.4469C28.9932 35.8311 29.0268 35.2284 29.0305 34.6369C29.038 33.939 29.0044 33.4128 28.9316 33.0582C28.857 32.6738 28.7506 32.3454 28.6125 32.0748C28.4726 31.8005 28.2972 31.5729 28.0882 31.3937C28.0061 31.3247 27.9165 31.265 27.8214 31.2165C27.5359 31.0746 27.2709 31.0019 27.0264 31.0019V31Z" fill="#A7B5BC"/>
<path d="M40.49 31.0564C40.449 31.1273 40.4061 31.1926 40.3613 31.2523C40.3613 31.2523 40.3632 31.2374 40.365 31.2299C40.4117 31.1758 40.4527 31.1179 40.49 31.0564ZM40.1579 31.4258C40.1019 31.4687 40.0366 31.5098 39.9638 31.549C40.0329 31.5135 40.0963 31.4725 40.1579 31.4258ZM39.3331 29C38.9431 29 38.6259 29.1437 38.3796 29.4311C38.3087 29.4964 38.2452 29.5673 38.1855 29.6475C37.4839 29.7259 36.9595 30.3417 37.0025 31.0545C37.079 32.2917 37.1293 33.0138 37.1536 33.2228C37.1592 33.2601 37.1648 33.2993 37.1704 33.3348C37.2506 33.9356 37.3365 34.4245 37.4316 34.8015L37.4354 34.8164C37.5604 35.2904 37.7302 35.6841 37.9448 35.9976C38.2378 36.423 38.6072 36.7067 39.0532 36.8485C39.0943 36.8615 39.1372 36.8727 39.1801 36.8821C39.3201 36.9119 39.4563 36.9269 39.585 36.9269C40.1971 36.9269 40.686 36.5928 41.0499 35.9229C41.2197 35.6094 41.3615 35.1915 41.4734 34.669C41.4958 34.5645 41.5182 34.4525 41.5388 34.3368C41.5406 34.3256 41.5425 34.3144 41.5443 34.3014C41.7589 32.8981 41.7589 31.8102 41.5481 31.0358C41.3764 30.3734 40.9901 29.8043 40.3911 29.3322C40.2643 29.2314 40.1187 29.1549 39.919 29.0933L39.9564 29.1045C39.9414 29.1008 39.9284 29.0952 39.9134 29.0914C39.7045 29.0317 39.5104 29 39.3331 29Z" fill="#A7B5BC"/>
<path d="M36.6794 42.49C36.629 42.3538 36.5637 42.2362 36.4891 42.1336C36.4518 41.6671 36.1644 41.2435 35.5523 41.1203C33.4251 40.6911 31.0552 41.4002 29.9748 43.4081C28.9131 45.3804 29.2116 48.1776 30.9078 49.7115C32.5331 51.1819 35.2333 51.1147 36.5488 49.2748C37.9147 47.364 37.4296 44.5389 36.6794 42.49ZM34.6921 47.1233C34.4663 48.0656 33.5856 48.4687 32.7552 47.8641C31.8595 47.2091 31.7662 45.6473 32.2308 44.7273C32.6246 43.9492 33.4643 43.5853 34.3002 43.5853C34.6791 44.7012 34.9664 45.9776 34.6921 47.1233Z" fill="#A7B5BC"/>
<rect x="59.25" width="26" height="26" rx="13" fill="#A7B5BC"/>
<path d="M60.2342 26.194C61.5738 25.042 62.2172 22.9529 62.4355 21.5237C62.4707 21.2935 62.739 21.1738 62.9274 21.3108L67.6929 24.7767C67.8496 24.8906 67.8588 25.1212 67.7048 25.2388C65.6101 26.8379 62.622 27.2108 60.43 27.1655C60.0872 27.1584 59.9743 26.4176 60.2342 26.194Z" fill="#A7B5BC"/>
<path d="M67.8855 10.22C67.7855 9.52 67.7655 8.78 68.0055 8.1C68.3055 7.2 69.0055 6.48 69.8655 6.08C71.6655 5.24 73.7055 5.38 75.2255 6.7C76.9055 8.14 76.7855 10.62 75.6855 12.32C75.6855 12.32 75.6655 12.34 75.6655 12.36C75.2255 12.98 74.5655 13.42 74.0655 13.98C73.4855 14.6 73.4855 15.18 73.3855 15.96C73.3055 16.7 73.0855 17.34 72.2455 17.32C71.1455 17.28 71.1855 15.8 71.3055 15.02C71.4655 14.08 71.9055 13.24 72.5255 12.5C73.2055 11.72 73.9855 11.2 74.1255 10.08C74.2655 9.06 73.4655 7.92 72.3855 7.86C71.4255 7.82 70.0855 8.48 70.1455 9.56C70.1855 10.22 70.6255 10.86 70.0455 11.4C69.1055 12.32 68.0255 11.16 67.8855 10.22ZM73.6455 20.2C73.6455 20.58 73.5055 20.92 73.2055 21.24C72.9255 21.54 72.5855 21.68 72.2255 21.68C71.8655 21.68 71.5455 21.54 71.2655 21.24C70.9855 20.92 70.8455 20.58 70.8455 20.2C70.8455 19.78 70.9855 19.44 71.2655 19.16C71.5455 18.86 71.8655 18.7 72.2255 18.7C72.5855 18.7 72.9255 18.86 73.2055 19.16C73.5055 19.46 73.6455 19.8 73.6455 20.2Z" fill="white"/>
<defs>
<clipPath id="clip0_900_16539">
<rect width="19" height="9.73392" fill="white" transform="matrix(-0.89263 0.450789 0.450789 0.89263 38.96 7)"/>
</clipPath>
</defs>
</svg>
