<svg width="40" height="40" viewBox="0 0 40 40" fill="none" xmlns="http://www.w3.org/2000/svg">
<path d="M20 40.0039C31.0457 40.0039 40 31.0496 40 20.0039C40 8.95821 31.0457 0.00390625 20 0.00390625C8.9543 0.00390625 0 8.95821 0 20.0039C0 31.0496 8.9543 40.0039 20 40.0039Z" fill="#DCE4E7"/>
<g clip-path="url(#clip0_1250_7467)">
<path d="M20.8212 3.09908C20.9305 3.04389 21.0575 3.0198 21.1886 3.03566C21.5381 3.07942 21.786 3.39974 21.7422 3.7492C21.6155 4.7512 21.2591 5.65501 20.6724 6.45983C20.6696 6.46424 20.6657 6.46825 20.6629 6.47266C20.455 6.74285 20.2186 6.99037 19.9537 7.21323C19.9489 7.21764 19.9445 7.22286 19.939 7.22767C19.8187 7.34045 19.2726 7.78344 18.3002 8.55583C18.1679 8.66467 18.0202 8.80034 17.8562 8.96324C17.8068 9.0122 17.7518 9.05198 17.6928 9.08179C17.4535 9.20264 17.1532 9.16308 16.953 8.96286C16.7038 8.71329 16.7038 8.30885 16.9534 8.05968C17.1488 7.86387 17.3304 7.6981 17.4977 7.56155C17.5001 7.56034 17.5021 7.55833 17.5049 7.55593C18.4215 6.82771 18.9378 6.41082 19.0537 6.30525C19.0712 6.2864 19.0903 6.26874 19.1102 6.25268C19.3078 6.08883 19.4841 5.90669 19.6379 5.70786C20.0958 5.08019 20.3739 4.37411 20.4727 3.59043C20.5002 3.37132 20.6362 3.19253 20.8188 3.10029L20.8212 3.09908Z" fill="#A7B5BC"/>
<path d="M17.5997 4.04969C17.7417 3.97799 17.911 3.95853 18.0759 4.00942C18.4128 4.11358 18.6021 4.4705 18.4979 4.80741C18.4214 5.05629 18.2667 5.35664 18.0343 5.70925C17.731 6.21081 17.4493 6.61837 17.1912 6.93192C16.8799 7.3384 16.3095 7.90177 15.4799 8.62205C15.4389 8.65778 15.3955 8.68672 15.3492 8.71009C15.0939 8.83899 14.7748 8.78392 14.5797 8.55811C14.3488 8.29128 14.3776 7.88833 14.6432 7.65707C15.4166 6.98618 15.9309 6.48218 16.1854 6.14546C16.1905 6.13785 16.1969 6.13063 16.2033 6.12341C16.426 5.85476 16.6755 5.49049 16.9518 5.0326C16.9562 5.02539 16.9613 5.01778 16.9657 5.01056C17.1325 4.75812 17.2365 4.56548 17.2775 4.43264C17.3304 4.25978 17.4501 4.12622 17.6001 4.05049L17.5997 4.04969Z" fill="#A7B5BC"/>
<path d="M15.7928 4.14603C16.1054 3.98812 16.4872 4.11168 16.6479 4.42395C16.8094 4.73782 16.6863 5.12236 16.3724 5.28388C16.2356 5.35396 16.1387 5.4059 16.0833 5.43889C16.0809 5.4401 16.0785 5.44131 16.0761 5.44252C16.0362 5.46466 15.9959 5.488 15.9553 5.51254C15.736 5.6453 15.5929 5.73059 15.5263 5.76923C15.4462 5.8167 15.2998 5.89961 15.0877 6.01876L15.0861 6.01956C14.8907 6.12825 14.6702 6.24462 14.4237 6.3691L14.4213 6.37031C14.2243 6.46981 14.0974 6.53186 14.0408 6.55846C13.9826 6.58787 13.8426 6.65357 13.6192 6.75637L13.616 6.75798C13.3292 6.88781 13.0303 7.0137 12.7183 7.13723C12.3903 7.26683 12.0196 7.10566 11.89 6.77768C11.7677 6.46805 11.9046 6.12061 12.1957 5.97358C12.2133 5.96472 12.2312 5.95665 12.2496 5.94939C12.5417 5.83392 12.8213 5.71571 13.0886 5.59475C13.2964 5.4988 13.4205 5.44116 13.4596 5.42142C13.4612 5.42061 13.4628 5.41981 13.4636 5.4194C13.4636 5.4194 13.4676 5.41739 13.4691 5.41658C13.4739 5.41417 13.4787 5.41175 13.4835 5.40933C13.527 5.38838 13.6478 5.32835 13.8477 5.22844C14.0774 5.11242 14.2828 5.0037 14.4626 4.90387C14.6695 4.78835 14.8079 4.70946 14.8781 4.66802L14.8805 4.66681C14.8805 4.66681 14.8868 4.66359 14.8908 4.66157C14.9467 4.62938 15.0822 4.54891 15.2975 4.41817L15.2983 4.41776L15.3039 4.41494C15.3485 4.38839 15.3932 4.36183 15.4378 4.33728C15.5128 4.29342 15.6284 4.23101 15.7844 4.15126C15.786 4.15045 15.7876 4.14965 15.7892 4.14884L15.7928 4.14603Z" fill="#A7B5BC"/>
</g>
<g clip-path="url(#clip1_1250_7467)">
<path d="M14.3385 14.5947C14.045 14.5947 13.8039 14.7823 13.6143 15.1586C13.6143 15.1586 13.6133 15.1616 13.6123 15.1626C13.5972 15.1929 13.583 15.2241 13.5689 15.2574C13.3954 15.3774 13.2764 15.5731 13.2603 15.8001C13.226 16.3064 13.2431 16.7724 13.3127 17.1991C13.3682 17.5904 13.4297 17.9283 13.4973 18.2148L13.4993 18.2239C13.5215 18.3137 13.5447 18.3903 13.5679 18.4539C13.7071 18.8331 13.933 19.0227 14.2467 19.0227C14.277 19.0227 14.3083 19.0207 14.3395 19.0177C14.3395 19.0177 14.3476 19.0177 14.3506 19.0177C14.6401 19.0177 14.8761 18.8593 15.0587 18.5416C15.097 18.476 15.1344 18.3984 15.1707 18.3106C15.2625 18.0887 15.327 17.8386 15.3643 17.5592C15.3643 17.5521 15.3664 17.5451 15.3664 17.539C15.4017 17.2061 15.4198 16.8803 15.4218 16.5606C15.4259 16.1834 15.4077 15.8989 15.3684 15.7073C15.328 15.4995 15.2705 15.322 15.1959 15.1757C15.1202 15.0274 15.0254 14.9044 14.9125 14.8076C14.8681 14.7702 14.8197 14.738 14.7682 14.7117C14.6139 14.6351 14.4707 14.5957 14.3385 14.5957V14.5947Z" fill="#A7B5BC"/>
<path d="M21.616 14.6252C21.5938 14.6635 21.5706 14.6988 21.5464 14.7311C21.5464 14.7311 21.5474 14.7231 21.5484 14.719C21.5736 14.6898 21.5958 14.6585 21.616 14.6252ZM21.4365 14.8249C21.4062 14.8481 21.3709 14.8703 21.3316 14.8915C21.3689 14.8723 21.4032 14.8501 21.4365 14.8249ZM20.9906 13.5137C20.7798 13.5137 20.6084 13.5913 20.4752 13.7467C20.4369 13.782 20.4026 13.8203 20.3703 13.8637C19.9911 13.906 19.7076 14.2389 19.7308 14.6242C19.7722 15.2929 19.7994 15.6833 19.8125 15.7963C19.8155 15.8164 19.8186 15.8376 19.8216 15.8568C19.865 16.1816 19.9114 16.4458 19.9628 16.6496L19.9648 16.6577C20.0324 16.9139 20.1242 17.1267 20.2402 17.2961C20.3986 17.5261 20.5983 17.6794 20.8393 17.7561C20.8615 17.7632 20.8847 17.7692 20.9079 17.7742C20.9836 17.7904 21.0572 17.7985 21.1268 17.7985C21.4576 17.7985 21.7219 17.6179 21.9186 17.2558C22.0104 17.0863 22.087 16.8604 22.1476 16.578C22.1597 16.5215 22.1718 16.461 22.1829 16.3984C22.1839 16.3924 22.1849 16.3863 22.1859 16.3793C22.3019 15.6208 22.3019 15.0327 22.1879 14.6141C22.0951 14.256 21.8863 13.9484 21.5625 13.6932C21.494 13.6387 21.4153 13.5974 21.3074 13.5641L21.3275 13.5702C21.3195 13.5681 21.3124 13.5651 21.3043 13.5631C21.1914 13.5308 21.0865 13.5137 20.9906 13.5137Z" fill="#A7B5BC"/>
<path d="M19.5566 20.8054C19.5293 20.7318 19.494 20.6682 19.4537 20.6127C19.4335 20.3606 19.2782 20.1316 18.9473 20.065C17.7974 19.833 16.5165 20.2163 15.9324 21.3017C15.3585 22.3678 15.5199 23.8798 16.4368 24.7089C17.3153 25.5037 18.7748 25.4674 19.4859 24.4729C20.2243 23.44 19.962 21.9129 19.5566 20.8054ZM18.4823 23.3099C18.3603 23.8193 17.8842 24.0371 17.4353 23.7103C16.9512 23.3563 16.9008 22.512 17.1519 22.0148C17.3647 21.5942 17.8186 21.3975 18.2705 21.3975C18.4753 22.0007 18.6306 22.6906 18.4823 23.3099Z" fill="#A7B5BC"/>
</g>
<defs>
<clipPath id="clip0_1250_7467">
<rect width="10.2703" height="5.26158" fill="white" transform="matrix(-0.89263 0.450789 0.450789 0.89263 20.79 1.62207)"/>
</clipPath>
<clipPath id="clip1_1250_7467">
<rect width="10.8108" height="18.522" fill="white" transform="translate(12.7031 13.5137)"/>
</clipPath>
</defs>
</svg>
