<svg width="40" height="40" viewBox="0 0 40 40" fill="none" xmlns="http://www.w3.org/2000/svg">
<g clip-path="url(#clip0_4_18)">
<mask id="mask0_4_18" style="mask-type:luminance" maskUnits="userSpaceOnUse" x="0" y="0" width="40" height="40">
<path d="M40 0H0V40H40V0Z" fill="white"/>
</mask>
<g mask="url(#mask0_4_18)">
<path d="M20 0.503906C30.7696 0.503906 39.5 9.23436 39.5 20.0039C39.5 30.7735 30.7696 39.5039 20 39.5039C9.23044 39.5039 0.500003 30.7735 0.5 20.0039C0.5 9.23436 9.23044 0.503906 20 0.503906Z" fill="#A0C9FF" stroke="#A0C9FF"/>
<path d="M15.6741 17.2946C15.663 17.3031 15.6527 17.3108 15.6416 17.3186C15.6416 17.3186 15.6416 17.3177 15.6416 17.3168C15.6527 17.31 15.6638 17.3023 15.6741 17.2946ZM15.3035 16.1846C15.224 16.1846 15.1469 16.2017 15.0733 16.2351C15.0126 16.2565 14.9544 16.2864 14.8979 16.3241C14.8885 16.3301 14.8791 16.3369 14.8705 16.3438C14.7789 16.4139 14.6993 16.5029 14.6317 16.6108C14.6137 16.639 14.5966 16.6698 14.5804 16.7006C14.2962 16.716 14.0523 16.93 14.0095 17.2227C13.9804 17.4058 13.9753 17.571 13.9916 17.7208C14.0027 17.8971 14.0386 18.0571 14.1002 18.2001C14.1071 18.2163 14.1148 18.2326 14.1225 18.2488C14.1251 18.2548 14.1285 18.2608 14.1311 18.2668C14.2449 18.4842 14.4109 18.634 14.6292 18.7161C14.7173 18.7555 14.8089 18.7743 14.9047 18.7743C15.0194 18.7743 15.1401 18.7469 15.2667 18.6913C15.2941 18.6793 15.3224 18.6656 15.3515 18.6502C15.3737 18.6383 15.3951 18.6254 15.4165 18.6109C15.449 18.5886 15.4799 18.5646 15.5107 18.5381C15.6356 18.4311 15.7469 18.2916 15.8444 18.1196C15.8496 18.1102 15.8556 18.0999 15.8598 18.0897C15.9531 17.9014 16.0156 17.7388 16.0456 17.6035C16.1012 17.3904 16.1234 17.2013 16.1123 17.0361C16.0943 16.7605 15.9916 16.5432 15.8051 16.3823C15.7828 16.3634 15.7589 16.3455 15.734 16.3301C15.7186 16.3206 15.7041 16.3112 15.6904 16.3035C15.5552 16.2248 15.4268 16.1854 15.3044 16.1854L15.3035 16.1846Z" fill="#6CABFF" stroke="#6CABFF" stroke-width="0.333333"/>
<path d="M22.4652 16.1172C22.1708 16.1172 21.9329 16.2447 21.7506 16.4989C21.6539 16.6324 21.5923 16.7873 21.5649 16.9628C21.5632 16.9764 21.5606 16.991 21.5589 17.0047C21.3715 17.1177 21.2508 17.3282 21.2636 17.5618C21.2722 17.7279 21.2919 17.8716 21.321 17.9932C21.3304 18.0402 21.3458 18.0882 21.3646 18.1387C21.3817 18.1823 21.4031 18.2311 21.4305 18.285C21.4391 18.3021 21.4485 18.3193 21.5461 18.4451L21.4613 18.3389C21.5195 18.4314 21.5897 18.5075 21.6727 18.5683C21.7283 18.6085 21.7865 18.6402 21.8473 18.6642C21.9243 18.7001 22.0056 18.7181 22.0912 18.7181C22.1931 18.7181 22.3009 18.6933 22.4147 18.6428C22.4276 18.6368 22.4404 18.6308 22.4541 18.6248C22.4781 18.6128 22.502 18.6 22.5243 18.5854C22.6022 18.5341 22.674 18.4682 22.7417 18.3877C22.7767 18.3458 22.8101 18.2996 22.8435 18.2482L22.8478 18.2414C23.0831 17.8648 23.2107 17.466 23.2303 17.0458C23.2312 17.0227 23.2303 16.9987 23.2303 16.9756C23.2269 16.9208 23.2201 16.8695 23.2115 16.8198C23.1525 16.5006 22.9924 16.2832 22.7305 16.1685C22.6612 16.1377 22.5859 16.1206 22.5106 16.118C22.496 16.118 22.4823 16.1172 22.4678 16.1172H22.4652Z" fill="#6CABFF" stroke="#6CABFF" stroke-width="0.333333"/>
<path d="M25.0218 20.7791C24.8327 20.7791 24.6461 20.8664 24.5272 21.0307C23.6944 22.1749 22.9593 22.9623 22.32 23.3928C21.2853 24.086 20.5398 24.4326 20.082 24.4326C20.0666 24.4326 20.0512 24.4326 20.0366 24.4318C20.0255 24.4318 20.0144 24.4309 20.0041 24.4309C19.9981 24.4309 19.993 24.4309 19.987 24.4309C19.8398 24.4352 19.6977 24.4369 19.5608 24.4369C18.5149 24.4369 17.7567 24.3188 17.286 24.0826C16.8914 23.8592 16.5842 23.6264 16.3642 23.3851C16.0185 22.982 15.7609 22.6028 15.5914 22.2477C15.5768 22.2177 15.5606 22.1895 15.5418 22.1621C15.4502 22.0294 15.3321 21.9028 15.1883 21.7821C15.0736 21.6854 14.9341 21.6383 14.7946 21.6383C14.6209 21.6383 14.4471 21.7119 14.3265 21.8557C14.1091 22.1142 14.1416 22.5001 14.4001 22.7175C14.448 22.7577 14.4865 22.7954 14.5148 22.8313C14.7296 23.267 15.0368 23.7171 15.4356 24.181C15.4391 24.1844 15.4416 24.1878 15.445 24.1913C15.7557 24.537 16.1717 24.8571 16.6911 25.1507C16.698 25.1549 16.7057 25.1584 16.7125 25.1626C17.357 25.4939 18.3138 25.659 19.583 25.659C19.7174 25.659 19.856 25.6573 19.9981 25.653C20.0203 25.653 20.0426 25.6539 20.0648 25.6539C20.782 25.6539 21.7603 25.238 23.0012 24.4061C23.7603 23.8952 24.5991 23.0094 25.5157 21.7487C25.7142 21.4757 25.6543 21.0931 25.3813 20.8946C25.2726 20.8159 25.1468 20.7773 25.0218 20.7773V20.7791Z" fill="#6CABFF" stroke="#6CABFF" stroke-width="0.333333"/>
<mask id="mask1_4_18" style="mask-type:luminance" maskUnits="userSpaceOnUse" x="14" y="2" width="12" height="10">
<path d="M25.9982 2.60938H14.3477V11.0182H25.9982V2.60938Z" fill="white"/>
</mask>
<g mask="url(#mask1_4_18)">
<path d="M22.252 6.94824C22.9614 6.73524 23.6202 6.68389 24.2324 6.7793L24.2842 6.78906C24.6822 6.8568 25.0677 6.98857 25.4434 7.18652V7.1875C25.4947 7.21458 25.5141 7.27732 25.4873 7.32812C25.4663 7.36754 25.4223 7.38986 25.3779 7.38281C25.3662 7.38042 25.354 7.37595 25.3428 7.37012C24.9973 7.1889 24.6342 7.0639 24.2539 6.99902H24.2529C23.6521 6.8972 23.0254 6.94754 22.3809 7.13184H22.3799L22.3135 7.15039L22.3057 7.15234L22.2979 7.15527C22.2924 7.15712 22.287 7.1584 22.2822 7.16016C21.8913 7.2788 21.5164 7.53287 21.1572 7.87109C20.8784 8.13369 20.5943 8.46067 20.3047 8.84766L20.0137 9.25391C19.9903 9.28779 19.9496 9.30446 19.9092 9.29785H19.9102C19.8943 9.29513 19.8795 9.29007 19.8682 9.28223L19.8672 9.28125L19.8379 9.25098C19.8157 9.21657 19.8155 9.1713 19.8398 9.13574V9.13477C20.7398 7.82546 21.55 7.15162 22.2471 6.9502L22.252 6.94824ZM22.2549 7.17188C22.244 7.17662 22.2571 7.17086 22.2617 7.16895C22.2631 7.16839 22.2647 7.16776 22.2666 7.16699C22.2608 7.16938 22.2565 7.17115 22.2549 7.17188Z" fill="#A7B5BC" stroke="#6CABFF"/>
<path d="M21.5664 4.36328V4.36426C21.6106 4.37193 21.6463 4.40897 21.6514 4.45605C21.6559 4.49913 21.6338 4.53875 21.5986 4.55859L21.5586 4.57129C20.3609 4.70075 19.2433 5.6932 18.1836 7.25195L18.1738 7.26758C17.8014 7.86123 17.5438 8.40849 17.5205 8.86426V8.86621C17.4968 9.36433 17.5393 9.84389 17.7402 10.2021L17.8359 10.3486C17.8712 10.3953 17.8627 10.4595 17.8184 10.4951C17.7941 10.5138 17.7644 10.5207 17.7344 10.5156C17.7097 10.5112 17.6867 10.4982 17.6699 10.4766H17.6689C17.4219 10.1569 17.2737 9.64233 17.3105 8.85449V8.85352C17.328 8.5014 17.4857 8.02539 17.8398 7.41211L18.0039 7.1416C18.0049 7.14001 18.0061 7.13877 18.0068 7.1377C19.1577 5.44376 20.27 4.59244 21.3242 4.39355L21.5342 4.36328H21.5664Z" fill="#A7B5BC" stroke="#6CABFF"/>
<path d="M15.7911 2.618C15.6175 2.58837 15.4322 2.63492 15.29 2.76019C14.6535 3.31965 14.3395 4.4555 14.348 6.16689C14.3429 6.70434 14.3996 7.27142 14.5164 7.86897C14.5164 7.87235 14.5181 7.87574 14.5189 7.87997C14.6848 8.65357 14.9159 9.45001 15.213 10.271C15.29 10.4834 15.4728 10.6265 15.681 10.662C15.7809 10.679 15.8859 10.6713 15.9874 10.6341C16.3014 10.5207 16.4639 10.1737 16.3505 9.85966C16.0737 9.09453 15.8588 8.35395 15.7039 7.63706C15.6023 7.11653 15.5532 6.62732 15.5583 6.17027C15.5583 6.16689 15.5583 6.16435 15.5583 6.16096C15.5515 4.81606 15.7284 3.98575 16.089 3.66836C16.3395 3.44745 16.3641 3.06573 16.1432 2.81436C16.0484 2.70602 15.9231 2.64 15.7911 2.618Z" fill="#6CABFF"/>
</g>
</g>
</g>
<defs>
<clipPath id="clip0_4_18">
<rect width="40" height="40" fill="white"/>
</clipPath>
</defs>
</svg>
