<svg width="40" height="40" viewBox="0 0 40 40" fill="none" xmlns="http://www.w3.org/2000/svg">
<g clip-path="url(#clip0_4_2)">
<path d="M20 40.0039C31.0457 40.0039 40 31.0496 40 20.0039C40 8.95821 31.0457 0.00390625 20 0.00390625C8.9543 0.00390625 0 8.95821 0 20.0039C0 31.0496 8.9543 40.0039 20 40.0039Z" fill="#7ACB93"/>
<mask id="mask0_4_2" style="mask-type:luminance" maskUnits="userSpaceOnUse" x="11" y="1" width="13" height="10">
<path d="M11.6225 6.25181L20.79 1.62207L23.1619 6.31871L13.9943 10.9485L11.6225 6.25181Z" fill="white"/>
</mask>
<g mask="url(#mask0_4_2)">
<path d="M20.8212 3.09907C20.9305 3.04388 21.0575 3.01979 21.1886 3.03565C21.5381 3.07941 21.786 3.39973 21.7422 3.74919C21.6155 4.75119 21.2591 5.655 20.6724 6.45982C20.6696 6.46423 20.6657 6.46824 20.6629 6.47265C20.455 6.74284 20.2186 6.99036 19.9537 7.21322C19.9489 7.21763 19.9445 7.22285 19.939 7.22766C19.8187 7.34044 19.2726 7.78343 18.3002 8.55582C18.1679 8.66466 18.0202 8.80033 17.8562 8.96323C17.8068 9.01219 17.7518 9.05197 17.6928 9.08178C17.4535 9.20263 17.1532 9.16307 16.953 8.96285C16.7038 8.71328 16.7038 8.30884 16.9534 8.05967C17.1488 7.86386 17.3304 7.69809 17.4977 7.56154C17.5001 7.56033 17.5021 7.55832 17.5049 7.55592C18.4215 6.8277 18.9378 6.41081 19.0537 6.30524C19.0712 6.28639 19.0903 6.26873 19.1102 6.25267C19.3078 6.08882 19.4841 5.90668 19.6379 5.70785C20.0958 5.08018 20.3739 4.3741 20.4727 3.59042C20.5002 3.37131 20.6362 3.19252 20.8188 3.10028L20.8212 3.09907Z" fill="#38A158"/>
<path d="M17.5996 4.04967C17.7416 3.97797 17.9109 3.95851 18.0758 4.0094C18.4127 4.11356 18.602 4.47048 18.4978 4.80739C18.4213 5.05627 18.2666 5.35662 18.0342 5.70923C17.7309 6.21079 17.4492 6.61835 17.1911 6.9319C16.8798 7.33838 16.3094 7.90175 15.4798 8.62203C15.4388 8.65776 15.3954 8.6867 15.3491 8.71007C15.0938 8.83897 14.7747 8.7839 14.5796 8.55809C14.3487 8.29126 14.3775 7.88831 14.6431 7.65705C15.4165 6.98616 15.9308 6.48216 16.1853 6.14544C16.1904 6.13783 16.1968 6.13061 16.2032 6.12339C16.4259 5.85474 16.6754 5.49047 16.9517 5.03258C16.9561 5.02537 16.9612 5.01776 16.9656 5.01054C17.1324 4.7581 17.2364 4.56546 17.2774 4.43262C17.3303 4.25976 17.4496 4.1254 17.5996 4.04967Z" fill="#38A158"/>
<path d="M15.7928 4.14601C16.1054 3.9881 16.4872 4.11166 16.6479 4.42393C16.8094 4.7378 16.6863 5.12234 16.3724 5.28386C16.2356 5.35394 16.1387 5.40588 16.0833 5.43887C16.0809 5.44008 16.0785 5.44129 16.0761 5.4425C16.0362 5.46464 15.9959 5.48798 15.9553 5.51252C15.736 5.64528 15.5929 5.73057 15.5263 5.76921C15.4462 5.81668 15.2998 5.89959 15.0877 6.01874L15.0861 6.01954C14.8907 6.12823 14.6702 6.2446 14.4237 6.36908L14.4213 6.37029C14.2243 6.46979 14.0974 6.53184 14.0408 6.55844C13.9826 6.58785 13.8426 6.65355 13.6192 6.75635L13.616 6.75796C13.3292 6.88779 13.0303 7.01368 12.7183 7.13721C12.3903 7.26681 12.0196 7.10564 11.89 6.77766C11.7677 6.46803 11.9046 6.12059 12.1957 5.97356C12.2133 5.9647 12.2312 5.95663 12.2496 5.94937C12.5417 5.8339 12.8213 5.71569 13.0886 5.59473C13.2964 5.49878 13.4205 5.44114 13.4596 5.4214C13.4612 5.42059 13.4628 5.41979 13.4636 5.41938C13.4636 5.41938 13.4676 5.41737 13.4691 5.41656C13.4739 5.41415 13.4787 5.41173 13.4835 5.40931C13.527 5.38836 13.6478 5.32833 13.8477 5.22842C14.0774 5.1124 14.2828 5.00368 14.4626 4.90385C14.6695 4.78833 14.8079 4.70944 14.8781 4.668L14.8805 4.66679C14.8805 4.66679 14.8868 4.66357 14.8908 4.66155C14.9467 4.62936 15.0822 4.54889 15.2975 4.41815L15.3039 4.41492C15.3485 4.38837 15.3932 4.36181 15.4378 4.33726C15.5128 4.2934 15.6284 4.23099 15.7844 4.15124C15.786 4.15043 15.7876 4.14963 15.7892 4.14882L15.7928 4.14601Z" fill="#38A158"/>
</g>
<mask id="mask1_4_2" style="mask-type:luminance" maskUnits="userSpaceOnUse" x="12" y="13" width="12" height="20">
<path d="M23.5139 13.5137H12.7031V32.0357H23.5139V13.5137Z" fill="white"/>
</mask>
<g mask="url(#mask1_4_2)">
<path d="M14.3385 14.5947C14.045 14.5947 13.8039 14.7823 13.6143 15.1586L13.6123 15.1626C13.5972 15.1929 13.583 15.2241 13.5689 15.2574C13.3954 15.3774 13.2764 15.5731 13.2603 15.8001C13.226 16.3064 13.2431 16.7724 13.3127 17.1991C13.3682 17.5904 13.4297 17.9283 13.4973 18.2148L13.4993 18.2239C13.5215 18.3137 13.5447 18.3903 13.5679 18.4539C13.7071 18.8331 13.933 19.0227 14.2467 19.0227C14.277 19.0227 14.3083 19.0207 14.3395 19.0177C14.3395 19.0177 14.3476 19.0177 14.3506 19.0177C14.6401 19.0177 14.8761 18.8593 15.0587 18.5416C15.097 18.476 15.1344 18.3984 15.1707 18.3106C15.2625 18.0887 15.327 17.8386 15.3643 17.5592C15.3643 17.5521 15.3664 17.5451 15.3664 17.539C15.4017 17.2061 15.4198 16.8803 15.4218 16.5606C15.4259 16.1834 15.4077 15.8989 15.3684 15.7073C15.328 15.4995 15.2705 15.322 15.1959 15.1757C15.1202 15.0274 15.0254 14.9044 14.9125 14.8076C14.8681 14.7702 14.8197 14.738 14.7682 14.7117C14.6139 14.6351 14.4707 14.5957 14.3385 14.5957V14.5947Z" fill="#38A158"/>
<path d="M21.616 14.6252C21.5938 14.6635 21.5706 14.6988 21.5464 14.7311C21.5464 14.7311 21.5474 14.7231 21.5484 14.719C21.5736 14.6898 21.5958 14.6585 21.616 14.6252ZM21.4365 14.8249C21.4062 14.8481 21.3709 14.8703 21.3316 14.8915C21.3689 14.8723 21.4032 14.8501 21.4365 14.8249ZM20.9906 13.5137C20.7798 13.5137 20.6084 13.5913 20.4752 13.7467C20.4369 13.782 20.4026 13.8203 20.3703 13.8637C19.9911 13.906 19.7076 14.2389 19.7308 14.6242C19.7722 15.2929 19.7994 15.6833 19.8125 15.7963C19.8155 15.8164 19.8186 15.8376 19.8216 15.8568C19.865 16.1816 19.9114 16.4458 19.9628 16.6496L19.9648 16.6577C20.0324 16.9139 20.1242 17.1267 20.2402 17.2961C20.3986 17.5261 20.5983 17.6794 20.8393 17.7561C20.8615 17.7632 20.8847 17.7692 20.9079 17.7742C20.9836 17.7904 21.0572 17.7985 21.1268 17.7985C21.4576 17.7985 21.7219 17.6179 21.9186 17.2558C22.0104 17.0863 22.087 16.8604 22.1476 16.578C22.1597 16.5215 22.1718 16.461 22.1829 16.3984C22.1839 16.3924 22.1849 16.3863 22.1859 16.3793C22.3019 15.6208 22.3019 15.0327 22.1879 14.6141C22.0951 14.256 21.8863 13.9484 21.5625 13.6932C21.494 13.6387 21.4153 13.5974 21.3074 13.5641L21.3275 13.5702C21.3195 13.5681 21.3124 13.5651 21.3043 13.5631C21.1914 13.5308 21.0865 13.5137 20.9906 13.5137Z" fill="#38A158"/>
<path d="M19.5566 20.8054C19.5293 20.7318 19.494 20.6682 19.4537 20.6127C19.4335 20.3606 19.2782 20.1316 18.9473 20.065C17.7974 19.833 16.5165 20.2163 15.9324 21.3017C15.3585 22.3678 15.5199 23.8798 16.4368 24.7089C17.3153 25.5037 18.7748 25.4674 19.4859 24.4729C20.2243 23.44 19.962 21.9129 19.5566 20.8054ZM18.4823 23.3099C18.3603 23.8193 17.8842 24.0371 17.4353 23.7103C16.9512 23.3563 16.9008 22.512 17.1519 22.0148C17.3647 21.5942 17.8186 21.3975 18.2705 21.3975C18.4753 22.0007 18.6306 22.6906 18.4823 23.3099Z" fill="#38A158"/>
</g>
</g>
<defs>
<clipPath id="clip0_4_2">
<rect width="40" height="40" fill="white"/>
</clipPath>
</defs>
</svg>
