<svg width="40" height="40" viewBox="0 0 40 40" fill="none" xmlns="http://www.w3.org/2000/svg">
<g clip-path="url(#clip0_1250_7450)">
<path d="M20 40.0039C31.0457 40.0039 40 31.0496 40 20.0039C40 8.95821 31.0457 0.00390625 20 0.00390625C8.9543 0.00390625 0 8.95821 0 20.0039C0 31.0496 8.9543 40.0039 20 40.0039Z" fill="#DCE4E7"/>
<path d="M15.6741 17.2946C15.663 17.3031 15.6527 17.3108 15.6416 17.3186C15.6416 17.3186 15.6416 17.3177 15.6416 17.3168C15.6527 17.31 15.663 17.3023 15.6733 17.2946H15.6741ZM15.3035 16.1846C15.224 16.1846 15.1469 16.2017 15.0733 16.2351C15.0126 16.2565 14.9544 16.2864 14.8979 16.3241C14.8885 16.3301 14.8791 16.3369 14.8705 16.3438C14.7789 16.4139 14.6993 16.5029 14.6317 16.6108C14.6137 16.639 14.5966 16.6698 14.5804 16.7006C14.2962 16.716 14.0523 16.93 14.0095 17.2227C13.9804 17.4058 13.9753 17.571 13.9916 17.7208C14.0027 17.8971 14.0386 18.0571 14.1002 18.2001C14.1071 18.2163 14.1148 18.2326 14.1225 18.2488C14.1251 18.2548 14.1285 18.2608 14.1311 18.2668C14.2449 18.4842 14.4109 18.634 14.6292 18.7161C14.7173 18.7555 14.8089 18.7743 14.9047 18.7743C15.0194 18.7743 15.1401 18.7469 15.2667 18.6913C15.2941 18.6793 15.3224 18.6656 15.3515 18.6502C15.3737 18.6383 15.3951 18.6254 15.4165 18.6109C15.449 18.5886 15.4799 18.5646 15.5107 18.5381C15.6356 18.4311 15.7469 18.2916 15.8444 18.1196C15.8496 18.1102 15.8556 18.0999 15.8598 18.0897C15.9531 17.9014 16.0156 17.7388 16.0456 17.6035C16.1012 17.3904 16.1234 17.2013 16.1123 17.0361C16.0943 16.7605 15.9916 16.5432 15.8051 16.3823C15.7828 16.3634 15.7589 16.3455 15.734 16.3301C15.7186 16.3206 15.7041 16.3112 15.6904 16.3035C15.5552 16.2248 15.4268 16.1854 15.3044 16.1854L15.3035 16.1846Z" fill="#A7B5BC" stroke="#A7B5BC" stroke-width="0.333333"/>
<path d="M22.4652 16.1172C22.1708 16.1172 21.9329 16.2447 21.7506 16.4989C21.6539 16.6324 21.5923 16.7873 21.5649 16.9628C21.5632 16.9764 21.5606 16.991 21.5589 17.0047C21.3715 17.1177 21.2508 17.3282 21.2636 17.5618C21.2722 17.7279 21.2919 17.8716 21.321 17.9932C21.3304 18.0402 21.3458 18.0882 21.3646 18.1387C21.3817 18.1823 21.4031 18.2311 21.4305 18.285C21.4391 18.3021 21.4485 18.3193 21.5461 18.4451L21.4613 18.3389C21.5195 18.4314 21.5897 18.5075 21.6727 18.5683C21.7283 18.6085 21.7865 18.6402 21.8473 18.6642C21.9243 18.7001 22.0056 18.7181 22.0912 18.7181C22.1931 18.7181 22.3009 18.6933 22.4147 18.6428C22.4276 18.6368 22.4404 18.6308 22.4541 18.6248C22.4781 18.6128 22.502 18.6 22.5243 18.5854C22.6022 18.5341 22.674 18.4682 22.7417 18.3877C22.7767 18.3458 22.8101 18.2996 22.8435 18.2482L22.8478 18.2414C23.0831 17.8648 23.2107 17.466 23.2303 17.0458C23.2312 17.0227 23.2303 16.9987 23.2303 16.9756C23.2269 16.9208 23.2201 16.8695 23.2115 16.8198C23.1525 16.5006 22.9924 16.2832 22.7305 16.1685C22.6612 16.1377 22.5859 16.1206 22.5106 16.118C22.496 16.118 22.4823 16.1172 22.4678 16.1172H22.4652Z" fill="#A7B5BC" stroke="#A7B5BC" stroke-width="0.333333"/>
<path d="M25.0218 20.7791C24.8327 20.7791 24.6461 20.8664 24.5272 21.0307C23.6944 22.1749 22.9593 22.9623 22.32 23.3928C21.2853 24.086 20.5398 24.4326 20.082 24.4326C20.0666 24.4326 20.0512 24.4326 20.0366 24.4318C20.0255 24.4318 20.0144 24.4309 20.0041 24.4309C19.9981 24.4309 19.993 24.4309 19.987 24.4309C19.8398 24.4352 19.6977 24.4369 19.5608 24.4369C18.5149 24.4369 17.7567 24.3188 17.286 24.0826C16.8914 23.8592 16.5842 23.6264 16.3642 23.3851C16.0185 22.982 15.7609 22.6028 15.5914 22.2477C15.5768 22.2177 15.5606 22.1895 15.5418 22.1621C15.4502 22.0294 15.3321 21.9028 15.1883 21.7821C15.0736 21.6854 14.9341 21.6383 14.7946 21.6383C14.6209 21.6383 14.4471 21.7119 14.3265 21.8557C14.1091 22.1142 14.1416 22.5001 14.4001 22.7175C14.448 22.7577 14.4865 22.7954 14.5148 22.8313C14.7296 23.267 15.0368 23.7171 15.4356 24.181C15.4391 24.1844 15.4416 24.1878 15.445 24.1913C15.7557 24.537 16.1717 24.8571 16.6911 25.1507C16.698 25.1549 16.7057 25.1584 16.7125 25.1626C17.357 25.4939 18.3138 25.659 19.583 25.659C19.7174 25.659 19.856 25.6573 19.9981 25.653C20.0203 25.653 20.0426 25.6539 20.0648 25.6539C20.782 25.6539 21.7603 25.238 23.0012 24.4061H23.0021C23.7612 23.8952 24.5991 23.0094 25.5157 21.7487C25.7142 21.4757 25.6543 21.0931 25.3813 20.8946C25.2726 20.8159 25.1468 20.7773 25.0218 20.7773V20.7791Z" fill="#A7B5BC" stroke="#A7B5BC" stroke-width="0.333333"/>
<g clip-path="url(#clip1_1250_7450)">
<path d="M24.3668 6.29463C23.6541 6.1736 22.9008 6.232 22.1086 6.46983C21.2411 6.72036 20.3473 7.51427 19.4281 8.85156C19.2385 9.12663 19.3079 9.50327 19.5838 9.69286C19.6583 9.74449 19.7413 9.77666 19.8251 9.79104C20.0502 9.82913 20.2872 9.73772 20.4251 9.53797C21.1835 8.43598 21.8581 7.80035 22.4497 7.63192C22.4522 7.63192 22.4548 7.63022 22.4573 7.62938C23.0642 7.4474 23.6355 7.4017 24.1696 7.49226C24.4971 7.54812 24.8111 7.65562 25.1124 7.81389C25.1708 7.84436 25.2318 7.86467 25.2936 7.87568C25.5441 7.91799 25.8048 7.79865 25.93 7.56167C26.0858 7.26628 25.9724 6.90064 25.677 6.74491C25.2563 6.52315 24.8204 6.37334 24.3676 6.29632L24.3668 6.29463Z" fill="#A7B5BC"/>
<path d="M21.6479 3.87084C21.5937 3.86153 21.5378 3.85984 21.4811 3.86576C20.1455 4.00965 18.8497 5.00669 17.5928 6.85688C17.5886 6.86281 17.5852 6.86873 17.581 6.87466C17.0943 7.64741 16.837 8.29912 16.8108 8.82896V8.8315C16.771 9.68212 16.9259 10.333 17.2746 10.7833C17.3711 10.9077 17.5074 10.9847 17.6512 11.0092C17.8121 11.0363 17.9839 10.9991 18.1235 10.8916C18.3876 10.6868 18.4358 10.3076 18.2319 10.0427C18.0651 9.82685 17.994 9.44259 18.0203 8.8899C18.0364 8.57335 18.2285 8.12138 18.5975 7.53315C19.6436 5.99442 20.6491 5.17258 21.6123 5.06847C21.9441 5.03293 22.1845 4.73415 22.1489 4.40237C22.1193 4.12729 21.9094 3.91485 21.6496 3.87084H21.6479Z" fill="#A7B5BC"/>
<path d="M15.7911 2.618C15.6175 2.58837 15.4322 2.63492 15.29 2.76019C14.6535 3.31965 14.3395 4.4555 14.348 6.16689C14.3429 6.70434 14.3996 7.27142 14.5164 7.86897C14.5164 7.87235 14.5181 7.87574 14.5189 7.87997C14.6848 8.65357 14.9159 9.45001 15.213 10.271C15.29 10.4834 15.4728 10.6265 15.681 10.662C15.7809 10.679 15.8859 10.6713 15.9874 10.6341C16.3014 10.5207 16.4639 10.1737 16.3505 9.85966C16.0737 9.09453 15.8588 8.35395 15.7039 7.63706C15.6023 7.11653 15.5532 6.62732 15.5583 6.17027C15.5583 6.16689 15.5583 6.16435 15.5583 6.16096C15.5515 4.81606 15.7284 3.98575 16.089 3.66836C16.3395 3.44745 16.3641 3.06573 16.1432 2.81436C16.0484 2.70602 15.9231 2.64 15.7911 2.618Z" fill="#A7B5BC"/>
</g>
</g>
<defs>
<clipPath id="clip0_1250_7450">
<rect width="40" height="40" fill="white"/>
</clipPath>
<clipPath id="clip1_1250_7450">
<rect width="11.6505" height="8.40883" fill="white" transform="translate(14.3477 2.60938)"/>
</clipPath>
</defs>
</svg>
