<svg width="75" height="74" viewBox="0 0 75 74" fill="none" xmlns="http://www.w3.org/2000/svg">
<g clip-path="url(#clip0_346_20888)">
<path d="M37.5 74.0078C57.9345 74.0078 74.5 57.4423 74.5 37.0078C74.5 16.5733 57.9345 0.0078125 37.5 0.0078125C17.0655 0.0078125 0.5 16.5733 0.5 37.0078C0.5 57.4423 17.0655 74.0078 37.5 74.0078Z" fill="#DCE4E7"/>
<path d="M22.0528 24.8959C21.623 24.8959 21.231 25.1869 21.1205 25.6234C20.7972 26.9019 21.0262 28.3004 21.8063 29.8214C22.4826 31.356 23.3799 32.2505 24.4994 32.5025C24.5654 32.5173 24.6328 32.5254 24.7002 32.5267C24.7109 32.5267 24.7217 32.5267 24.7325 32.5267C25.7497 32.5267 26.5567 31.9515 27.1522 30.7996C27.8379 29.4792 28.2919 28.1118 28.5129 26.6958C28.5951 26.1704 28.2354 25.6786 27.7099 25.5965C27.6601 25.5884 27.6102 25.5843 27.5604 25.5843C27.0942 25.5843 26.6847 25.9238 26.6106 26.3994C26.422 27.6079 26.0326 28.7787 25.4438 29.9117C25.235 30.3186 25.0235 30.5436 24.812 30.5907C24.3607 30.4277 23.9417 29.9023 23.5563 29.0131C23.5483 28.9942 23.5388 28.974 23.5294 28.9552C22.9636 27.8585 22.783 26.9046 22.9891 26.0936C23.1198 25.5776 22.8073 25.0549 22.2913 24.9242C22.2118 24.904 22.1323 24.8945 22.0542 24.8945L22.0528 24.8959Z" fill="#A7B5BC" stroke="#A7B5BC" stroke-width="0.555556"/>
<path d="M41.3764 23.3556C41.1083 23.3556 40.8415 23.4661 40.6516 23.6843C40.3471 24.0319 40.3377 24.5358 40.6017 24.8915C40.5883 25.1016 40.5384 25.3994 40.4549 25.7834L40.4522 25.7941C40.2487 26.7871 39.9335 27.7463 39.5091 28.6746V28.6786C38.8759 30.073 38.2481 30.8881 37.6243 31.1225C37.5259 31.1468 37.4262 31.1589 37.3252 31.1589C36.8105 31.1589 36.277 30.8383 35.7233 30.1983C35.5401 29.9652 35.3892 29.6527 35.2733 29.2579C35.1858 28.944 35.1022 28.2556 35.02 27.1939C35.0173 27.1656 35.0147 27.1387 35.0106 27.1118C34.9688 26.8558 34.9028 26.6106 34.8139 26.3748C34.6684 25.9895 34.302 25.7524 33.9139 25.7524C33.8008 25.7524 33.6849 25.7726 33.5731 25.8143C33.076 26.003 32.8254 26.558 33.014 27.0552C33.0544 27.1616 33.0854 27.2748 33.1069 27.3933C33.1972 28.5506 33.3023 29.3442 33.4209 29.7712C33.4209 29.7753 33.4235 29.7793 33.4249 29.7834C33.6122 30.426 33.8776 30.9636 34.2198 31.396C34.2265 31.4055 34.2346 31.4149 34.2427 31.423C35.1938 32.5372 36.207 33.0936 37.2794 33.0936C37.5731 33.0936 37.8708 33.0518 38.1726 32.9683C38.1928 32.9629 38.2144 32.9561 38.2346 32.9494C39.3865 32.5479 40.3969 31.3893 41.2646 29.4748C41.7496 28.4172 42.108 27.3233 42.341 26.1902C42.4731 25.584 42.5377 25.1043 42.5364 24.7514V24.746C42.531 24.2744 42.3572 23.8905 42.0163 23.59C41.8331 23.4297 41.6081 23.3516 41.3818 23.3516L41.3764 23.3556Z" fill="#A7B5BC" stroke="#A7B5BC" stroke-width="0.555556"/>
<path d="M39.246 35.9922C39.0533 35.9922 38.858 36.0501 38.6882 36.17C37.5309 36.9932 36.5057 37.5819 35.6138 37.9336C35.0048 38.1707 33.985 38.3539 32.5542 38.486C32.3413 38.5008 32.1311 38.5075 31.9223 38.5075C30.0631 38.5075 28.3669 37.9376 26.8324 36.7992C26.6599 36.6712 26.4592 36.6092 26.2598 36.6092C25.9661 36.6092 25.6751 36.744 25.4865 36.9986C25.1699 37.4257 25.2588 38.0292 25.6859 38.3458C27.5613 39.7376 29.636 40.4341 31.9102 40.4341C32.1702 40.4341 32.4343 40.4247 32.6997 40.4071C32.7064 40.4071 32.7145 40.4071 32.7212 40.4058C34.3406 40.2576 35.5384 40.0326 36.3184 39.7281H36.3211C37.3598 39.3172 38.5212 38.6557 39.8051 37.7409C40.2389 37.4324 40.34 36.8315 40.0315 36.3977C39.8442 36.1336 39.5478 35.9935 39.246 35.9935V35.9922Z" fill="#A7B5BC" stroke="#A7B5BC" stroke-width="0.555556"/>
<g clip-path="url(#clip1_346_20888)">
<path d="M26.8964 12.2773C26.7251 12.2773 26.5513 12.3274 26.3975 12.4299C25.9887 12.7049 25.8812 13.2613 26.1562 13.6701C26.9464 14.8416 27.9616 15.7455 29.2018 16.3806C29.208 16.3844 29.2155 16.3869 29.2218 16.3906C29.6519 16.5969 30.1032 16.7569 30.5746 16.8682C30.5833 16.8707 30.5921 16.8745 30.6021 16.877C30.8233 16.942 31.7848 17.1508 33.4863 17.5021C33.7201 17.5546 33.9902 17.6308 34.2977 17.7309C34.3903 17.7609 34.484 17.7759 34.5765 17.7759C34.9516 17.7759 35.3017 17.5371 35.4255 17.1608C35.5792 16.6919 35.3242 16.1868 34.8554 16.033C34.4878 15.9118 34.1565 15.8193 33.8614 15.7542C33.8577 15.7542 33.8539 15.753 33.8489 15.7517C32.2449 15.4204 31.3372 15.2254 31.1259 15.1666C31.0921 15.1541 31.0571 15.1441 31.0221 15.1366C30.6721 15.0566 30.337 14.9403 30.0194 14.7891C29.0518 14.294 28.2591 13.5876 27.6415 12.6712C27.469 12.4149 27.1864 12.2773 26.9001 12.2773H26.8964Z" fill="#A7B5BC"/>
<path d="M31.5188 11.4297C31.2962 11.4297 31.0724 11.5122 30.8987 11.6797C30.5436 12.0223 30.5323 12.5874 30.8749 12.9425C31.1274 13.205 31.51 13.4826 32.0226 13.7764C32.7177 14.2115 33.3266 14.5428 33.8467 14.7716C34.4918 15.0829 35.5595 15.4267 37.0498 15.803C37.1236 15.8218 37.1961 15.8305 37.2686 15.8305C37.6687 15.8305 38.0325 15.5605 38.1338 15.1554C38.2538 14.6765 37.9637 14.1915 37.4861 14.0702C36.0971 13.7201 35.1369 13.4151 34.6068 13.155C34.5956 13.1488 34.5831 13.1438 34.5706 13.1388C34.123 12.9437 33.5817 12.6462 32.9478 12.2486C32.9378 12.2423 32.9265 12.2361 32.9165 12.2298C32.549 12.0198 32.2977 11.8448 32.1626 11.7047C31.9876 11.5222 31.7538 11.4309 31.5188 11.4309V11.4297Z" fill="#A7B5BC"/>
<path d="M33.838 10.4141C33.3479 10.4141 32.9491 10.8091 32.9453 11.3005C32.9416 11.7943 33.3379 12.1969 33.8318 12.2006C34.0468 12.2019 34.2006 12.2056 34.2906 12.2119C34.2943 12.2119 34.2981 12.2119 34.3018 12.2119C34.3656 12.2144 34.4306 12.2181 34.4969 12.2232C34.8544 12.2507 35.087 12.2669 35.1945 12.2732C35.3245 12.2819 35.5596 12.2932 35.8996 12.3082H35.9021C36.2147 12.3207 36.5635 12.3269 36.9498 12.3269H36.9536C37.2624 12.3269 37.4599 12.3244 37.5474 12.3219C37.6387 12.3219 37.855 12.3157 38.1988 12.3032H38.2038C38.6439 12.2844 39.0965 12.2532 39.5641 12.2106C40.0554 12.1656 40.4167 11.7306 40.3717 11.2392C40.3292 10.7754 39.9391 10.4278 39.4828 10.4278C39.4553 10.4278 39.4278 10.4291 39.4003 10.4316C38.9627 10.4716 38.5389 10.5003 38.1288 10.5178C37.8087 10.5291 37.6175 10.5353 37.5562 10.5353C37.5537 10.5353 37.5512 10.5353 37.5499 10.5353C37.5499 10.5353 37.5437 10.5353 37.5412 10.5353C37.5337 10.5353 37.5262 10.5353 37.5187 10.5353C37.4512 10.5366 37.2624 10.5378 36.9498 10.5391C36.5898 10.5391 36.2647 10.5328 35.9772 10.5216C35.6458 10.5078 35.4233 10.4966 35.3095 10.4891H35.3058C35.3058 10.4891 35.2958 10.4891 35.2895 10.4891C35.1995 10.4841 34.9795 10.4691 34.6282 10.4416H34.6269H34.6182C34.5456 10.4366 34.4731 10.4316 34.4019 10.4291C34.2806 10.4216 34.0968 10.4166 33.8518 10.4153C33.8493 10.4153 33.8468 10.4153 33.8443 10.4153L33.838 10.4141Z" fill="#A7B5BC"/>
</g>
</g>
<defs>
<clipPath id="clip0_346_20888">
<rect width="74" height="74" fill="white" transform="translate(0.5)"/>
</clipPath>
<clipPath id="clip1_346_20888">
<rect width="14.3689" height="7.36137" fill="white" transform="translate(26.0039 10.4141)"/>
</clipPath>
</defs>
</svg>
