<svg width="55" height="54" viewBox="0 0 55 54" fill="none" xmlns="http://www.w3.org/2000/svg">
<g clip-path="url(#clip0_1087_9639)">
<path d="M27.75 54.0078C42.6617 54.0078 54.75 41.9195 54.75 27.0078C54.75 12.0961 42.6617 0.0078125 27.75 0.0078125C12.8383 0.0078125 0.75 12.0961 0.75 27.0078C0.75 41.9195 12.8383 54.0078 27.75 54.0078Z" fill="#7FB2F6"/>
<path d="M16.4773 18.165C16.1637 18.165 15.8776 18.3774 15.797 18.6959C15.561 19.6289 15.7282 20.6494 16.2974 21.7594C16.7909 22.8792 17.4457 23.532 18.2627 23.7158C18.3108 23.7266 18.36 23.7325 18.4092 23.7335C18.417 23.7335 18.4249 23.7335 18.4328 23.7335C19.175 23.7335 19.7639 23.3137 20.1985 22.4731C20.6989 21.5097 21.0302 20.5118 21.1914 19.4785C21.2514 19.0951 20.9889 18.7362 20.6055 18.6763C20.5691 18.6704 20.5327 18.6674 20.4963 18.6674C20.1562 18.6674 19.8573 18.9152 19.8032 19.2622C19.6656 20.1441 19.3815 20.9984 18.9518 21.8252C18.7995 22.1222 18.6451 22.2863 18.4908 22.3207C18.1614 22.2018 17.8557 21.8184 17.5745 21.1695C17.5686 21.1557 17.5617 21.141 17.5548 21.1272C17.1419 20.327 17.0102 19.6309 17.1606 19.0391C17.2559 18.6625 17.0279 18.2811 16.6513 18.1857C16.5933 18.1709 16.5353 18.1641 16.4783 18.1641L16.4773 18.165Z" fill="#1C1D1E" stroke="#1C1D1E" stroke-width="0.5"/>
<path d="M30.5778 17.042C30.3822 17.042 30.1875 17.1226 30.0489 17.2819C29.8267 17.5355 29.8198 17.9032 30.0125 18.1628C30.0027 18.3162 29.9663 18.5334 29.9054 18.8136L29.9034 18.8215C29.7549 19.5461 29.5249 20.246 29.2152 20.9234V20.9264C28.7531 21.9439 28.295 22.5387 27.8398 22.7098C27.768 22.7275 27.6953 22.7363 27.6215 22.7363C27.246 22.7363 26.8567 22.5023 26.4526 22.0353C26.3189 21.8653 26.2088 21.6372 26.1242 21.3491C26.0603 21.12 25.9994 20.6177 25.9394 19.843C25.9374 19.8223 25.9355 19.8026 25.9325 19.783C25.902 19.5962 25.8539 19.4173 25.789 19.2452C25.6828 18.964 25.4154 18.791 25.1323 18.791C25.0497 18.791 24.9651 18.8058 24.8835 18.8362C24.5207 18.9739 24.3379 19.3789 24.4755 19.7417C24.505 19.8194 24.5276 19.9019 24.5434 19.9885C24.6092 20.833 24.6859 21.412 24.7724 21.7237C24.7724 21.7266 24.7744 21.7296 24.7754 21.7325C24.912 22.2015 25.1057 22.5938 25.3554 22.9093C25.3603 22.9162 25.3662 22.9231 25.3721 22.929C26.0662 23.7421 26.8055 24.1481 27.5881 24.1481C27.8024 24.1481 28.0197 24.1176 28.2399 24.0567C28.2547 24.0527 28.2704 24.0478 28.2852 24.0429C29.1257 23.7499 29.8631 22.9044 30.4962 21.5074C30.8502 20.7356 31.1117 19.9373 31.2817 19.1105C31.3781 18.6681 31.4253 18.3181 31.4243 18.0605V18.0566C31.4204 17.7125 31.2935 17.4323 31.0448 17.2131C30.9111 17.0961 30.7469 17.0391 30.5818 17.0391L30.5778 17.042Z" fill="#1C1D1E" stroke="#1C1D1E" stroke-width="0.5"/>
<path d="M29.0228 26.2656C28.8823 26.2656 28.7397 26.3079 28.6158 26.3954C27.7713 26.9961 27.0232 27.4257 26.3723 27.6823C25.9279 27.8554 25.1837 27.9891 24.1396 28.0854C23.9843 28.0962 23.8309 28.1011 23.6785 28.1011C22.3218 28.1011 21.084 27.6853 19.9643 26.8545C19.8384 26.7611 19.6919 26.7159 19.5464 26.7159C19.3321 26.7159 19.1197 26.8142 18.9821 27C18.7511 27.3117 18.816 27.7521 19.1276 27.9832C20.4961 28.9987 22.0102 29.507 23.6697 29.507C23.8594 29.507 24.0521 29.5001 24.2458 29.4874C24.2507 29.4874 24.2566 29.4874 24.2615 29.4864C25.4433 29.3782 26.3173 29.214 26.8865 28.9919H26.8885C27.6465 28.692 28.4939 28.2093 29.4308 27.5417C29.7474 27.3166 29.8211 26.8781 29.596 26.5615C29.4594 26.3689 29.2431 26.2666 29.0228 26.2666V26.2656Z" fill="#1C1D1E" stroke="#1C1D1E" stroke-width="0.5"/>
<g clip-path="url(#clip1_1087_9639)">
<path d="M20.0126 8.96094C19.8876 8.96094 19.7608 8.99743 19.6486 9.07224C19.3502 9.27296 19.2718 9.67894 19.4725 9.97728C20.0491 10.8321 20.7899 11.4917 21.6949 11.9552C21.6995 11.9579 21.705 11.9598 21.7095 11.9625C22.0234 12.113 22.3527 12.2298 22.6967 12.311C22.7031 12.3128 22.7094 12.3156 22.7167 12.3174C22.8782 12.3648 23.5798 12.5172 24.8215 12.7736C24.9921 12.8119 25.1892 12.8675 25.4136 12.9405C25.4811 12.9624 25.5495 12.9734 25.617 12.9734C25.8907 12.9734 26.1462 12.7991 26.2365 12.5245C26.3487 12.1824 26.1626 11.8138 25.8205 11.7016C25.5523 11.6131 25.3105 11.5456 25.0952 11.4981C25.0924 11.4981 25.0897 11.4972 25.0861 11.4963C23.9155 11.2545 23.2532 11.1122 23.099 11.0693C23.0744 11.0602 23.0488 11.0529 23.0233 11.0474C22.7678 10.9891 22.5233 10.9042 22.2916 10.7938C21.5854 10.4325 21.007 9.91706 20.5563 9.24832C20.4304 9.06129 20.2242 8.96094 20.0153 8.96094H20.0126Z" fill="#1C1D1E"/>
<path d="M23.3866 8.34375C23.2242 8.34375 23.0609 8.40396 22.9341 8.52622C22.675 8.7762 22.6668 9.18857 22.9167 9.44767C23.101 9.63926 23.3802 9.8418 23.7543 10.0562C24.2615 10.3737 24.7058 10.6155 25.0853 10.7824C25.5561 11.0096 26.3352 11.2605 27.4227 11.5351C27.4766 11.5488 27.5295 11.5552 27.5824 11.5552C27.8743 11.5552 28.1398 11.3581 28.2137 11.0625C28.3013 10.7131 28.0897 10.3591 27.7411 10.2706C26.7275 10.0151 26.0269 9.79253 25.64 9.60277C25.6318 9.59821 25.6227 9.59456 25.6136 9.59091C25.287 9.44858 24.8919 9.23145 24.4294 8.94133C24.4221 8.93677 24.4139 8.9322 24.4066 8.92764C24.1383 8.77437 23.955 8.64664 23.8564 8.54446C23.7287 8.41126 23.5581 8.34466 23.3866 8.34466V8.34375Z" fill="#1C1D1E"/>
<path d="M25.0792 7.60156C24.7215 7.60156 24.4305 7.88986 24.4278 8.24841C24.425 8.60878 24.7142 8.90255 25.0746 8.90529C25.2315 8.9062 25.3437 8.90893 25.4094 8.9135C25.4122 8.9135 25.4149 8.9135 25.4176 8.9135C25.4642 8.91532 25.5116 8.91806 25.56 8.92171C25.8209 8.94178 25.9906 8.95364 26.069 8.9582C26.1639 8.96459 26.3354 8.9728 26.5836 8.98375H26.5854C26.8135 8.99287 27.068 8.99743 27.35 8.99743H27.3527C27.578 8.99743 27.7222 8.99561 27.786 8.99378C27.8526 8.99378 28.0105 8.98922 28.2614 8.9801H28.265C28.5862 8.96641 28.9164 8.9436 29.2576 8.91258C29.6162 8.87974 29.8799 8.56225 29.847 8.2037C29.816 7.86523 29.5313 7.6116 29.1983 7.6116C29.1783 7.6116 29.1582 7.61251 29.1381 7.61434C28.8188 7.64353 28.5095 7.66451 28.2103 7.67729C27.9767 7.6855 27.8371 7.69006 27.7924 7.69006C27.7906 7.69006 27.7888 7.69006 27.7879 7.69006C27.7879 7.69006 27.7833 7.69006 27.7815 7.69006C27.776 7.69006 27.7705 7.69006 27.7651 7.69006C27.7158 7.69097 27.578 7.69188 27.35 7.6928C27.0872 7.6928 26.85 7.68823 26.6402 7.68002C26.3984 7.66999 26.236 7.66178 26.153 7.6563H26.1502C26.1502 7.6563 26.1429 7.6563 26.1384 7.6563C26.0727 7.65265 25.9121 7.64171 25.6558 7.62163H25.6548H25.6485C25.5955 7.61798 25.5426 7.61434 25.4906 7.61251C25.4021 7.60704 25.268 7.60339 25.0892 7.60247C25.0874 7.60247 25.0855 7.60247 25.0837 7.60247L25.0792 7.60156Z" fill="#1C1D1E"/>
</g>
</g>
<defs>
<clipPath id="clip0_1087_9639">
<rect width="54" height="54" fill="white" transform="translate(0.75)"/>
</clipPath>
<clipPath id="clip1_1087_9639">
<rect width="10.4854" height="5.37181" fill="white" transform="translate(19.3613 7.60156)"/>
</clipPath>
</defs>
</svg>
