<svg width="86" height="80" viewBox="0 0 86 80" fill="none" xmlns="http://www.w3.org/2000/svg">
<path d="M46.5 76.5078C66.9345 76.5078 83.5 59.9423 83.5 39.5078C83.5 19.0733 66.9345 2.50781 46.5 2.50781C26.0655 2.50781 9.5 19.0733 9.5 39.5078C9.5 59.9423 26.0655 76.5078 46.5 76.5078Z" fill="#DCE4E7"/>
<g clip-path="url(#clip0_1790_38212)">
<path d="M52.8451 8.5C52.3803 8.5 51.9489 8.80024 51.8057 9.26814C50.4066 13.7886 48.8185 16.7712 47.0399 18.2145C46.889 18.2556 46.7442 18.2755 46.6055 18.2755C46.3891 18.2755 46.1849 18.2267 45.9959 18.1276C46.0416 18.0133 46.0873 17.8975 46.13 17.7786C46.1422 17.7466 46.1529 17.7131 46.162 17.6795C46.7 15.6693 46.7351 14.2427 46.2672 13.3984C45.9974 12.9122 45.5996 12.5983 45.0723 12.4565C44.9946 12.4352 44.9153 12.4199 44.833 12.4077C44.7903 12.4016 44.7461 12.3971 44.7019 12.3925C44.6928 12.3925 44.6821 12.391 44.673 12.391C44.6105 12.3879 44.548 12.3849 44.487 12.3849C44.2539 12.3849 44.0359 12.4123 43.8332 12.4672C43.1779 12.644 42.7359 13.0509 42.5088 13.691C42.4311 13.9074 42.3853 14.1437 42.3701 14.4012C42.3686 14.4302 42.367 14.4592 42.3655 14.4881C42.2695 15.7592 42.5149 16.9205 43.1047 17.9737C43.2007 18.1749 43.3013 18.3654 43.4065 18.5437C42.7465 19.7599 41.9449 20.6302 40.9999 21.1544C40.811 21.2459 40.6159 21.2916 40.4147 21.2916C39.962 21.2916 39.4789 21.0584 38.9653 20.5921L38.9577 20.5844C38.1697 19.8834 37.743 18.9704 37.6805 17.8457C37.647 17.2665 37.1669 16.8184 36.5938 16.8184C36.5725 16.8184 36.5527 16.8184 36.5313 16.82C35.9309 16.8535 35.4721 17.3686 35.5056 17.9691C35.6032 19.6959 36.2707 21.1102 37.5098 22.2122C38.4593 23.0717 39.4119 23.5015 40.3705 23.5015C40.9146 23.5015 41.4617 23.3628 42.0089 23.0839C42.0196 23.0778 42.0317 23.0717 42.0424 23.0656C43.1992 22.427 44.1792 21.4593 44.9854 20.1592C45.4213 20.3894 45.8983 20.5037 46.415 20.5037C46.8844 20.5037 47.3889 20.4092 47.9254 20.2187C48.0321 20.1806 48.1311 20.1272 48.221 20.0586C50.4264 18.3791 52.3162 14.9972 53.8891 9.9113C54.0674 9.33672 53.7458 8.72709 53.1697 8.54877C53.063 8.51524 52.9548 8.5 52.8481 8.5L52.8451 8.5Z" fill="#A7B5BC"/>
</g>
<g clip-path="url(#clip1_1790_38212)">
<path d="M52.3142 25.832C52.2886 25.832 52.263 25.832 52.236 25.8349C51.6761 25.8775 51.2583 26.365 51.3009 26.9249C51.3677 27.8046 51.2611 28.5038 50.9798 29.0239C50.7282 29.4758 50.4568 29.7316 50.1683 29.7927C49.9281 29.7927 49.6212 29.5994 49.2488 29.2129C49.138 29.0537 49.0115 28.7922 48.868 28.427C48.8623 28.4128 48.8566 28.4 48.8509 28.3858C48.8026 28.2352 48.6875 27.7889 48.507 27.0471C48.3947 26.5824 47.9783 26.2712 47.5207 26.2712C47.4411 26.2712 47.3616 26.2811 47.2806 26.2996C46.732 26.4332 46.3966 26.9817 46.5288 27.5274C46.7334 28.373 46.8699 28.8917 46.9366 29.0821C46.9537 29.1319 46.9736 29.1802 46.9949 29.2243C47.2109 29.7657 47.4298 30.1835 47.6529 30.4763C47.6742 30.5047 47.6984 30.5331 47.7225 30.5587C48.5169 31.4029 49.3312 31.8235 50.164 31.8235C50.2294 31.8235 50.2933 31.8207 50.3587 31.8164C50.3829 31.815 50.4056 31.8121 50.4284 31.8079C51.3947 31.6643 52.1721 31.0604 52.7604 29.9988L52.7661 29.9888C53.2351 29.1191 53.4227 28.0461 53.3246 26.7714C53.2834 26.2385 52.8386 25.8335 52.3128 25.8335L52.3142 25.832Z" fill="#A7B5BC"/>
<path d="M65.3886 23.5C64.8657 23.5 64.4208 23.9022 64.3782 24.4337C64.2205 26.3664 64.0656 27.6412 63.9121 28.2594C63.9092 28.2707 63.9064 28.2821 63.9035 28.2949C63.8623 28.491 63.8183 28.6274 63.7728 28.7042C63.7273 28.7155 63.6904 28.7212 63.6634 28.7212C63.6534 28.7212 63.6435 28.7212 63.6364 28.7184C63.345 28.5862 63.0494 28.3532 62.7496 28.0192C62.4114 27.4962 62.211 26.7928 62.147 25.9088C62.1087 25.3745 61.6624 24.9666 61.1352 24.9666C61.111 24.9666 61.0855 24.9666 61.0613 24.9694C60.5014 25.0107 60.0807 25.4967 60.1219 26.0552C60.2143 27.3271 60.5397 28.3759 61.0982 29.203C61.121 29.2371 61.1466 29.2698 61.1736 29.301C61.6837 29.8865 62.2266 30.31 62.8022 30.5701C62.9144 30.6213 63.0296 30.6611 63.1503 30.6895C63.3152 30.7293 63.4843 30.7492 63.6577 30.7492C63.8993 30.7492 64.1508 30.7108 64.4123 30.6326C64.752 30.5374 65.0433 30.3484 65.2849 30.0685C65.5634 29.7473 65.7624 29.3067 65.8846 28.7482C66.0651 28.022 66.2385 26.6393 66.4047 24.5971C66.4502 24.0386 66.0338 23.5483 65.4753 23.5028C65.4469 23.5 65.4199 23.5 65.3915 23.5H65.3886Z" fill="#A7B5BC"/>
<path d="M62.5933 34.4727C61.9822 34.4727 61.3441 34.5366 60.6819 34.6645C57.8823 35.196 55.58 36.1951 53.7738 37.6631C51.7004 39.1951 50.2693 41.0169 49.4806 43.1302C49.2844 43.656 49.5502 44.2401 50.076 44.4376C50.1925 44.4817 50.3133 44.5016 50.4313 44.5016C50.8434 44.5016 51.23 44.25 51.382 43.8407C52.0343 42.0956 53.2423 40.575 55.0059 39.2775C55.0201 39.2675 55.0329 39.2576 55.0457 39.2462C56.589 37.9885 58.5942 37.1259 61.0627 36.6584H61.0656C61.5544 36.5631 62.0263 36.5162 62.4796 36.5162C64.9794 36.5162 66.9519 37.943 68.3986 40.7967C68.5777 41.1491 68.9344 41.3538 69.3053 41.3538C69.4602 41.3538 69.6165 41.3182 69.7643 41.2443C70.2645 40.9914 70.4649 40.3803 70.2105 39.88C68.383 36.2761 65.8434 34.4727 62.5919 34.4727H62.5933Z" fill="#A7B5BC"/>
</g>
<path d="M18.5241 45.6041C20.0583 42.9099 23.9417 42.9099 25.4759 45.6041L39.0951 69.5206C40.6136 72.1872 38.6878 75.5 35.6192 75.5H8.38085C5.31222 75.5 3.38643 72.1872 4.90491 69.5206L18.5241 45.6041Z" fill="#A7B5BC"/>
<path d="M20.2508 55.48C20.4708 55.14 20.8908 54.98 21.2308 54.98C21.5308 54.98 21.8108 54.98 22.0708 55.04C23.1908 55.34 22.8908 57.54 22.8908 58.4V64.3C22.8908 64.82 22.9308 65.38 22.7508 65.86C22.3908 66.76 20.4708 66.7 20.1108 65.84C20.0308 65.6 19.9908 65.18 19.9708 64.9C19.9508 64.44 19.9708 63.94 19.9708 63.44V56.74C19.9708 56.42 20.0308 55.82 20.2508 55.48ZM22.5508 68.34C22.6308 68.46 22.7108 68.58 22.7508 68.74C22.9108 69.3 22.8708 70.12 22.2108 70.4C21.6308 70.64 20.5108 70.54 20.2508 69.84C20.1108 69.46 20.0908 68.92 20.2308 68.54C20.3908 68.14 20.7708 68.02 21.1708 68.02C21.6708 68 22.2108 68 22.5508 68.34Z" fill="white"/>
<defs>
<clipPath id="clip0_1790_38212">
<rect width="18.4353" height="15" fill="white" transform="translate(35.5 8.5)"/>
</clipPath>
<clipPath id="clip1_1790_38212">
<rect width="23.8224" height="21" fill="white" transform="translate(46.5 23.5)"/>
</clipPath>
</defs>
</svg>
